<svg width="138" height="152" viewBox="0 0 138 152" fill="none" xmlns="http://www.w3.org/2000/svg">
<path d="M81.4449 94.743C100.346 94.743 110.506 71.825 97.5111 58.3578L97.2748 58.1216L68.9228 29.7696L40.5708 58.1216L40.3345 58.3578C27.1035 71.825 37.4993 94.743 56.4007 94.743H81.4449Z" fill="#003640"/>
<path d="M40.5708 38.7477L44.1148 42.2917L68.9228 17.4837L93.7308 42.2917L97.2748 38.7477C106.253 29.7696 109.797 18.1926 108.852 7.32428C108.379 3.07148 104.835 0 100.583 0H37.4994C33.2466 0 29.4663 3.07148 29.23 7.32428C28.0487 18.1926 31.3564 29.5333 40.5708 38.7477Z" fill="#003640"/>
<path d="M10.352 145.095C9.40267 145.095 8.46933 144.962 7.552 144.695C6.64533 144.418 5.79733 143.996 5.008 143.431C4.21867 142.855 3.52 142.119 2.912 141.223C2.31467 140.316 1.84 139.234 1.488 137.975C1.14667 136.716 0.976 135.26 0.976 133.607C0.976 131.964 1.14667 130.514 1.488 129.255C1.84 127.996 2.31467 126.919 2.912 126.023C3.52 125.116 4.21867 124.38 5.008 123.815C5.79733 123.25 6.64533 122.834 7.552 122.567C8.46933 122.29 9.40267 122.151 10.352 122.151C11.3013 122.151 12.224 122.29 13.12 122.567C14.0267 122.834 14.8747 123.25 15.664 123.815C16.464 124.38 17.1627 125.116 17.76 126.023C18.368 126.919 18.8427 127.996 19.184 129.255C19.5253 130.514 19.696 131.964 19.696 133.607C19.696 135.26 19.5253 136.716 19.184 137.975C18.8427 139.234 18.368 140.316 17.76 141.223C17.1627 142.119 16.464 142.855 15.664 143.431C14.8747 143.996 14.0267 144.418 13.12 144.695C12.224 144.962 11.3013 145.095 10.352 145.095ZM10.352 141.655C10.96 141.655 11.5413 141.506 12.096 141.207C12.6613 140.908 13.168 140.439 13.616 139.799C14.064 139.148 14.416 138.316 14.672 137.303C14.928 136.279 15.056 135.047 15.056 133.607C15.056 132.178 14.928 130.956 14.672 129.943C14.416 128.919 14.064 128.087 13.616 127.447C13.168 126.807 12.6613 126.338 12.096 126.039C11.5413 125.74 10.96 125.591 10.352 125.591C9.744 125.591 9.152 125.74 8.576 126.039C8.01067 126.338 7.504 126.807 7.056 127.447C6.61867 128.087 6.26667 128.919 6 129.943C5.744 130.956 5.616 132.178 5.616 133.607C5.616 135.047 5.744 136.279 6 137.303C6.26667 138.316 6.61867 139.148 7.056 139.799C7.504 140.439 8.01067 140.908 8.576 141.207C9.152 141.506 9.744 141.655 10.352 141.655ZM37.6125 144.743L34.3805 128.407L33.8365 122.423H36.3805L40.5085 141.879L39.8525 144.743H37.6125ZM25.4205 144.743L21.7725 122.343H26.5885L28.7485 141.735L29.1805 144.743H25.4205ZM28.7965 144.743L28.2525 141.879L32.4125 122.423H34.9885L34.5725 128.407L31.1965 144.743H28.7965ZM39.4685 144.743L39.9965 141.735L42.2365 122.343H47.0525L43.3885 144.743H39.4685ZM58.352 145.095C57.4027 145.095 56.4693 144.962 55.552 144.695C54.6453 144.418 53.7973 143.996 53.008 143.431C52.2187 142.855 51.52 142.119 50.912 141.223C50.3147 140.316 49.84 139.234 49.488 137.975C49.1467 136.716 48.976 135.26 48.976 133.607C48.976 131.964 49.1467 130.514 49.488 129.255C49.84 127.996 50.3147 126.919 50.912 126.023C51.52 125.116 52.2187 124.38 53.008 123.815C53.7973 123.25 54.6453 122.834 55.552 122.567C56.4693 122.29 57.4027 122.151 58.352 122.151C59.3013 122.151 60.224 122.29 61.12 122.567C62.0267 122.834 62.8747 123.25 63.664 123.815C64.464 124.38 65.1627 125.116 65.76 126.023C66.368 126.919 66.8427 127.996 67.184 129.255C67.5253 130.514 67.696 131.964 67.696 133.607C67.696 135.26 67.5253 136.716 67.184 137.975C66.8427 139.234 66.368 140.316 65.76 141.223C65.1627 142.119 64.464 142.855 63.664 143.431C62.8747 143.996 62.0267 144.418 61.12 144.695C60.224 144.962 59.3013 145.095 58.352 145.095ZM58.352 141.655C58.96 141.655 59.5413 141.506 60.096 141.207C60.6613 140.908 61.168 140.439 61.616 139.799C62.064 139.148 62.416 138.316 62.672 137.303C62.928 136.279 63.056 135.047 63.056 133.607C63.056 132.178 62.928 130.956 62.672 129.943C62.416 128.919 62.064 128.087 61.616 127.447C61.168 126.807 60.6613 126.338 60.096 126.039C59.5413 125.74 58.96 125.591 58.352 125.591C57.744 125.591 57.152 125.74 56.576 126.039C56.0107 126.338 55.504 126.807 55.056 127.447C54.6187 128.087 54.2667 128.919 54 129.943C53.744 130.956 53.616 132.178 53.616 133.607C53.616 135.047 53.744 136.279 54 137.303C54.2667 138.316 54.6187 139.148 55.056 139.799C55.504 140.439 56.0107 140.908 56.576 141.207C57.152 141.506 57.744 141.655 58.352 141.655ZM59.904 120.407H55.808L60.768 115.623H65.488L59.904 120.407ZM74.1725 136.855V133.175H84.2685V136.855H74.1725ZM102.409 142.039L103.513 136.087L107.337 122.343H109.849L109.865 126.199L105.145 142.039H102.409ZM91.209 144.743L93.129 122.343H97.353L95.881 144.743H91.209ZM101.273 142.039L96.537 126.199L96.585 122.343H99.065L102.985 136.087L103.977 142.039H101.273ZM110.521 144.743L109.049 122.343H113.273L115.209 144.743H110.521ZM120.397 144.743V141.367H124.909V125.719H120.397V122.343H134.029V125.719H129.485V141.367H134.029V144.743H120.397Z" fill="#003640"/>
</svg>
