<svg width="68" height="75" viewBox="0 0 68 75" fill="none" xmlns="http://www.w3.org/2000/svg">
<g opacity="0.8" clip-path="url(#clip0_127_2100)">
<path d="M14.1575 49.9458C15.0553 50.2603 16.0757 50.2495 17.1655 50.2035C17.5131 51.4113 17.799 52.5525 18.6501 53.3368C18.4969 53.7813 19.9743 62.5059 20.0705 63.0208C20.222 63.5465 20.508 64.0329 20.8915 64.4228C21.355 64.9012 21.9718 65.2371 22.6236 65.3687C23.534 65.5111 24.431 65.5052 25.3483 65.5688C25.4001 65.792 26.2594 71.7118 26.3306 71.7313C26.4576 72.1798 26.683 72.5996 26.9833 72.9553C28.0403 74.1926 29.2117 74.1622 30.6925 74.2413C32.4755 74.3474 34.2436 74.3968 36.0063 74.4029C38.6282 74.4117 41.2427 74.3042 43.8741 74.0864C46.0353 73.9078 48.2814 73.6382 50.451 73.2934C56.008 72.4164 61.4708 71.0088 66.7637 69.1059C67.5894 68.8091 68.4164 68.4994 69.2269 68.1813C71.0506 67.67 72.4078 66.2043 72.1018 64.2275L70.7699 55.6112C70.4158 53.607 67.5716 53.2336 65.4578 53.0417C65.3727 52.7503 64.513 46.1864 64.2747 46.2233L64.8823 46.1293C66.14 45.9349 67.0049 44.7537 66.8105 43.4959L66.6862 42.6918C68.0869 42.4936 68.8381 40.7303 68.0069 39.5831L64.162 33.913C63.5866 33.0249 62.3294 32.7679 61.443 33.3287C61.9966 29.011 61.3566 24.449 59.6357 20.4541C60.8533 19.7051 60.7285 17.861 60.6939 16.4477C62.161 16.084 64.5035 15.2982 64.2093 13.6686C63.9962 12.0256 61.5294 11.9848 60.0188 12.0807C59.6551 10.6136 58.8693 8.27108 57.2397 8.56513C55.5963 8.77839 55.5559 11.2459 55.6519 12.7566C55.3011 12.8474 54.9701 12.9439 54.6653 13.0446C49.624 7.88641 42.1251 5.41018 35.0954 6.98664C29.3265 7.50065 23.9894 10.5555 20.4768 15.1717L16.8499 9.8224C15.9411 8.42522 13.7041 8.77005 13.2597 10.3774L11.3062 16.9437C10.8607 18.2873 12.1086 19.7436 13.504 19.5085L13.6283 20.3125C13.9136 21.891 15.3412 22.5374 16.8182 22.1548C14.7296 28.5397 15.4688 35.8301 18.7557 41.6918C16.4976 41.209 16.3705 44.0584 16.4903 45.8365C15.0233 46.2002 12.6808 46.986 12.9748 48.6157C13.0292 48.9667 13.2549 49.6063 14.1575 49.9458Z" fill="white"/>
<path d="M69.4587 55.8179C69.7656 57.8029 60.3335 60.9094 48.3922 62.7553C36.4508 64.6011 26.5236 64.4871 26.2167 62.5022C25.9095 60.5145 35.3391 57.4085 47.2804 55.5627C59.2216 53.7167 69.1515 53.8303 69.4587 55.8179Z" fill="#FFAE5E"/>
<path opacity="0.6" d="M69.4587 55.8179C69.7656 57.8029 60.3335 60.9094 48.3922 62.7553C36.4508 64.6011 26.5236 64.4871 26.2167 62.5022C25.9095 60.5145 35.3391 57.4085 47.2804 55.5627C59.2216 53.7167 69.1515 53.8303 69.4587 55.8179Z" fill="#FF4400"/>
<path opacity="0.4" d="M66.1508 56.329C66.4107 58.0103 58.4218 60.6415 48.3075 62.2049C38.1933 63.7683 29.7849 63.6718 29.525 61.9905C29.2647 60.3071 37.2516 57.6763 47.3658 56.1128C57.4799 54.5494 65.8906 54.6455 66.1508 56.329Z" fill="#FF4400"/>
<path d="M69.4587 55.8179L70.7906 64.4344C70.9355 65.3715 70.4136 66.2838 69.5339 66.6379C56.6712 71.8143 43.2633 73.8297 29.4234 72.8336C28.4729 72.7652 27.693 72.0536 27.5474 71.1119L26.2166 62.5023C26.5234 64.4873 36.4508 64.6013 48.392 62.7554C60.3334 60.9093 69.7655 57.8029 69.4587 55.8179Z" fill="#FFAE5E"/>
<path d="M69.4587 55.8179L70.7906 64.4344C70.9354 65.3705 70.4133 66.2834 69.5336 66.6369C69.4403 66.6755 69.3438 66.712 69.25 66.7479C68.8735 66.9 68.4989 67.0466 68.1211 67.1909C67.4598 67.4461 66.7943 67.6913 66.1301 67.9282C65.7511 68.0646 65.3714 68.1959 64.9939 68.3241C64.3258 68.5535 63.659 68.772 62.9909 68.9826C62.6121 69.103 62.2302 69.221 61.8503 69.3335C61.1783 69.5368 60.5076 69.7317 59.8328 69.9164C59.4516 70.021 59.0675 70.1234 58.6859 70.2253C58.012 70.3993 57.3347 70.5684 56.658 70.724C56.2725 70.8185 55.889 70.9073 55.5015 70.9887C54.8243 71.1416 54.1431 71.2846 53.4627 71.4166C53.0749 71.4953 52.6888 71.5684 52.2993 71.6367C51.6181 71.7634 50.9327 71.8801 50.2483 71.9859C49.8606 72.0485 49.47 72.1089 49.0811 72.1636C48.3959 72.264 47.7064 72.3545 47.0183 72.4367C46.6256 72.4841 46.2352 72.5282 45.8416 72.5704C45.1524 72.6447 44.4592 72.7115 43.7671 72.7675C43.3724 72.8016 42.9799 72.8329 42.5838 72.8592C41.8906 72.9073 41.1965 72.9501 40.4977 72.9802C40.1036 73.0009 39.706 73.0167 39.3101 73.0269C38.6132 73.0514 37.9124 73.0684 37.2104 73.0776C36.8134 73.08 36.4139 73.0827 36.016 73.0797C35.315 73.078 34.6102 73.0687 33.9067 73.0513C33.5054 73.0435 33.1061 73.0301 32.7036 73.0145C31.9985 72.9865 31.29 72.9538 30.5825 72.9101C30.1975 72.8864 29.81 72.8629 29.4243 72.8341C29.4082 72.8338 29.389 72.8315 29.3725 72.8287C28.443 72.7388 27.6901 72.0363 27.547 71.1107L26.2163 62.5021C26.2889 62.9714 26.8984 63.3363 27.9453 63.596C28.3051 63.6828 28.7172 63.7613 29.178 63.8244C29.8035 63.9103 30.5194 63.974 31.3125 64.0152C31.6966 64.0337 32.0963 64.0498 32.516 64.0547C33.1763 64.0708 33.8799 64.072 34.6213 64.0569C35.007 64.051 35.405 64.0377 35.8112 64.0259C36.4838 63.9998 37.1791 63.9649 37.9024 63.9202C38.291 63.8977 38.684 63.8692 39.0848 63.8394C39.7589 63.7889 40.4532 63.7299 41.1623 63.6632C41.5488 63.6276 41.9428 63.5883 42.3416 63.5454C43.0177 63.4731 43.7092 63.3958 44.41 63.3089C44.797 63.2598 45.1894 63.21 45.5843 63.1596C46.2629 63.068 46.9489 62.9727 47.6442 62.868C47.8936 62.8322 48.1428 62.7937 48.3919 62.7552C48.5308 62.7337 48.6724 62.7118 48.811 62.6876C49.506 62.5802 50.189 62.4666 50.8636 62.3488C51.2557 62.2802 51.6452 62.2119 52.029 62.1418C52.7232 62.0129 53.4036 61.881 54.0731 61.748C54.4635 61.6688 54.8511 61.5875 55.2332 61.5069C55.9298 61.3589 56.6074 61.2085 57.2684 61.0554C57.6595 60.9627 58.0426 60.8712 58.4202 60.7779C59.1214 60.6077 59.7975 60.4308 60.4466 60.2526C60.8387 60.1491 61.222 60.0415 61.592 59.9333C62.3012 59.727 62.9723 59.5186 63.6003 59.3088C63.9967 59.1805 64.3763 59.0492 64.7374 58.9183C65.4744 58.6486 66.1393 58.3821 66.7186 58.1181C67.1326 57.9306 67.5043 57.747 67.8302 57.5624C68.9518 56.9325 69.539 56.337 69.4587 55.8179Z" fill="#FFAE5E"/>
<path opacity="0.28" d="M69.4587 55.8179L70.7906 64.4344C70.9354 65.3705 70.4133 66.2834 69.5336 66.6369C69.4403 66.6755 69.3438 66.712 69.25 66.7479C68.8735 66.9 68.4989 67.0466 68.1211 67.1909C67.4598 67.4461 66.7943 67.6913 66.1301 67.9282C65.7511 68.0646 65.3714 68.1959 64.9939 68.3241C64.3258 68.5535 63.659 68.772 62.9909 68.9826C62.6121 69.103 62.2302 69.221 61.8503 69.3335C61.1783 69.5368 60.5076 69.7317 59.8328 69.9164C59.4516 70.021 59.0675 70.1234 58.6859 70.2253C58.012 70.3993 57.3347 70.5684 56.658 70.724C56.2725 70.8185 55.889 70.9073 55.5015 70.9887C54.8243 71.1416 54.1431 71.2846 53.4627 71.4166C53.0749 71.4953 52.6888 71.5684 52.2993 71.6367C51.6181 71.7634 50.9327 71.8801 50.2483 71.9859C49.8606 72.0485 49.47 72.1089 49.0811 72.1636C48.3959 72.264 47.7064 72.3545 47.0183 72.4367C46.6256 72.4841 46.2352 72.5282 45.8416 72.5704C45.1524 72.6447 44.4592 72.7115 43.7671 72.7675C43.3724 72.8016 42.9799 72.8329 42.5838 72.8592C41.8906 72.9073 41.1965 72.9501 40.4977 72.9802C40.1036 73.0009 39.706 73.0167 39.3101 73.0269C38.6132 73.0514 37.9124 73.0684 37.2104 73.0776C36.8134 73.08 36.4139 73.0827 36.016 73.0797C35.315 73.078 34.6102 73.0687 33.9067 73.0513C33.5054 73.0435 33.1061 73.0301 32.7036 73.0145C31.9985 72.9865 31.29 72.9538 30.5825 72.9101C30.1975 72.8864 29.81 72.8629 29.4243 72.8341C29.4082 72.8338 29.389 72.8315 29.3725 72.8287C28.443 72.7388 27.6901 72.0363 27.547 71.1107L26.2163 62.5021C26.2889 62.9714 26.8984 63.3363 27.9453 63.596C28.3051 63.6828 28.7172 63.7613 29.178 63.8244C29.8035 63.9103 30.5194 63.974 31.3125 64.0152C31.6966 64.0337 32.0963 64.0498 32.516 64.0547C33.1763 64.0708 33.8799 64.072 34.6213 64.0569C35.007 64.051 35.405 64.0377 35.8112 64.0259C36.4838 63.9998 37.1791 63.9649 37.9024 63.9202C38.291 63.8977 38.684 63.8692 39.0848 63.8394C39.7589 63.7889 40.4532 63.7299 41.1623 63.6632C41.5488 63.6276 41.9428 63.5883 42.3416 63.5454C43.0177 63.4731 43.7092 63.3958 44.41 63.3089C44.797 63.2598 45.1894 63.21 45.5843 63.1596C46.2629 63.068 46.9489 62.9727 47.6442 62.868C47.8936 62.8322 48.1428 62.7937 48.3919 62.7552C48.5308 62.7337 48.6724 62.7118 48.811 62.6876C49.506 62.5802 50.189 62.4666 50.8636 62.3488C51.2557 62.2802 51.6452 62.2119 52.029 62.1418C52.7232 62.0129 53.4036 61.881 54.0731 61.748C54.4635 61.6688 54.8511 61.5875 55.2332 61.5069C55.9298 61.3589 56.6074 61.2085 57.2684 61.0554C57.6595 60.9627 58.0426 60.8712 58.4202 60.7779C59.1214 60.6077 59.7975 60.4308 60.4466 60.2526C60.8387 60.1491 61.222 60.0415 61.592 59.9333C62.3012 59.727 62.9723 59.5186 63.6003 59.3088C63.9967 59.1805 64.3763 59.0492 64.7374 58.9183C65.4744 58.6486 66.1393 58.3821 66.7186 58.1181C67.1326 57.9306 67.5043 57.747 67.8302 57.5624C68.9518 56.9325 69.539 56.337 69.4587 55.8179Z" fill="#FF4400"/>
<path opacity="0.4" d="M29.1785 63.8244L30.583 72.9102C30.198 72.8865 29.8105 72.8631 29.4248 72.8342C29.4087 72.834 29.3895 72.8316 29.373 72.8288L27.9458 63.5961C28.3056 63.6827 28.7177 63.7614 29.1785 63.8244Z" fill="#FF4400"/>
<path opacity="0.4" d="M32.5163 64.0548L33.907 73.0513C33.5057 73.0436 33.1063 73.0301 32.7038 73.0145L31.3127 64.0153C31.6969 64.0339 32.0968 64.0499 32.5163 64.0548Z" fill="#FF4400"/>
<path opacity="0.4" d="M35.8115 64.0261L37.2107 73.0778C36.8137 73.0801 36.4141 73.0828 36.0163 73.0798L34.6216 64.057C35.0072 64.051 35.4053 64.0379 35.8115 64.0261Z" fill="#FF4400"/>
<path opacity="0.4" d="M39.0849 63.8396L40.4979 72.9804C40.1037 73.0011 39.7062 73.0169 39.3103 73.0271L37.9026 63.9203C38.2912 63.8978 38.6841 63.8692 39.0849 63.8396Z" fill="#FF4400"/>
<path opacity="0.4" d="M42.3418 63.5455L43.7673 72.7677C43.3727 72.8018 42.9801 72.833 42.5841 72.8593L41.1626 63.6634C41.5491 63.6278 41.9432 63.5884 42.3418 63.5455Z" fill="#FF4400"/>
<path opacity="0.4" d="M45.5845 63.1597L47.0186 72.4369C46.6258 72.4843 46.2354 72.5284 45.8418 72.5706L44.4102 63.3091C44.7972 63.2599 45.1896 63.21 45.5845 63.1597Z" fill="#FF4400"/>
<path opacity="0.4" d="M48.8111 62.6878L50.2484 71.986C49.8607 72.0487 49.4701 72.1091 49.0812 72.1637L47.6443 62.8682C47.8938 62.8323 48.1429 62.7938 48.392 62.7553C48.5309 62.7337 48.6725 62.7118 48.8111 62.6878Z" fill="#FF4400"/>
<path opacity="0.4" d="M52.0291 62.142L53.4627 71.4165C53.075 71.4953 52.6889 71.5683 52.2993 71.6366L50.8637 62.3489C51.2559 62.2803 51.6453 62.2121 52.0291 62.142Z" fill="#FF4400"/>
<path opacity="0.4" d="M55.2335 61.507L56.6582 70.7239C56.2727 70.8184 55.8892 70.9073 55.5017 70.9886L54.0733 61.748C54.4638 61.6691 54.8513 61.5877 55.2335 61.507Z" fill="#FF4400"/>
<path opacity="0.4" d="M58.4202 60.7783L59.8328 69.9165C59.4516 70.0211 59.0675 70.1235 58.6859 70.2254L57.2684 61.0557C57.6594 60.963 58.0426 60.8715 58.4202 60.7783Z" fill="#FF4400"/>
<path opacity="0.4" d="M61.5923 59.9335L62.991 68.9825C62.6123 69.1029 62.2304 69.2209 61.8504 69.3334L60.4468 60.2528C60.8389 60.1494 61.2222 60.0417 61.5923 59.9335Z" fill="#FF4400"/>
<path opacity="0.4" d="M64.7376 58.9183L66.1303 67.9281C65.7513 68.0645 65.3716 68.1958 64.9941 68.324L63.6006 59.309C63.9969 59.1807 64.3766 59.0494 64.7376 58.9183Z" fill="#FF4400"/>
<path opacity="0.4" d="M67.8304 57.5624L69.2502 66.7479C68.8737 66.9 68.4991 67.0466 68.1213 67.1909L66.7189 58.1183C67.1328 57.9306 67.5045 57.747 67.8304 57.5624Z" fill="#FF4400"/>
<path d="M63.1956 47.0965C63.5024 49.0815 54.0703 52.188 42.129 54.0339C30.1877 55.8797 20.2604 55.7658 19.9536 53.7808C19.6463 51.7932 29.0759 48.6872 41.0172 46.8413C52.9585 44.9954 62.8883 45.1089 63.1956 47.0965Z" fill="#FFAE5E"/>
<path opacity="0.2" d="M63.1956 47.0965C63.5024 49.0815 54.0703 52.188 42.129 54.0339C30.1877 55.8797 20.2604 55.7658 19.9536 53.7808C19.6463 51.7932 29.0759 48.6872 41.0172 46.8413C52.9585 44.9954 62.8883 45.1089 63.1956 47.0965Z" fill="#FF4400"/>
<path opacity="0.4" d="M59.8874 47.6076C60.1473 49.2889 52.1583 51.9201 42.0441 53.4835C31.9298 55.047 23.5214 54.9505 23.2615 53.2692C23.0013 51.5857 30.9881 48.9549 41.1024 47.3914C51.2166 45.828 59.6271 45.9242 59.8874 47.6076Z" fill="#FF4400"/>
<path d="M63.1955 47.0965L64.5274 55.713C64.6723 56.6501 64.1504 57.5625 63.2708 57.9165C50.408 63.0929 37.0001 65.1083 23.1602 64.1122C22.2098 64.0438 21.4298 63.3322 21.2842 62.3905L19.9534 53.781C20.2602 55.7659 30.1876 55.8799 42.1288 54.0341C54.0701 52.1882 63.5023 49.0814 63.1955 47.0965Z" fill="#FFAE5E"/>
<path d="M63.1956 47.0965L64.5275 55.713C64.6722 56.6491 64.1502 57.5621 63.2704 57.9156C63.1771 57.9541 63.0806 57.9906 62.9869 58.0265C62.6103 58.1787 62.2357 58.3252 61.8579 58.4695C61.1966 58.7247 60.5311 58.97 59.867 59.2068C59.4879 59.3433 59.1083 59.4745 58.7307 59.6026C58.0626 59.832 57.3958 60.0505 56.7277 60.2611C56.3489 60.3815 55.9671 60.4995 55.5871 60.612C54.9151 60.8151 54.2445 61.0102 53.5696 61.1949C53.1884 61.2996 52.8043 61.4019 52.4227 61.5038C51.7488 61.6778 51.0716 61.8469 50.3948 62.0026C50.0094 62.0971 49.6259 62.186 49.2383 62.2673C48.5612 62.4202 47.8799 62.5632 47.1995 62.6952C46.8116 62.774 46.4257 62.847 46.0361 62.9153C45.3549 63.042 44.6696 63.1587 43.9851 63.2645C43.5975 63.3272 43.2068 63.3875 42.8179 63.4422C42.1328 63.5428 41.4433 63.6332 40.7552 63.7154C40.3624 63.7626 39.972 63.8068 39.5784 63.849C38.8893 63.9234 38.1961 63.9901 37.5039 64.0461C37.1092 64.0803 36.7167 64.1115 36.3207 64.1378C35.6275 64.1859 34.9333 64.2287 34.2346 64.2589C33.8404 64.2796 33.4429 64.2953 33.0469 64.3055C32.3501 64.3301 31.6492 64.347 30.9472 64.3563C30.5502 64.3586 30.1507 64.3613 29.7529 64.3583C29.0518 64.3566 28.347 64.3473 27.6435 64.3299C27.2422 64.3222 26.8429 64.3087 26.4404 64.2931C25.7353 64.2652 25.0268 64.2323 24.3193 64.1887C23.9344 64.165 23.5469 64.1416 23.1611 64.1127C23.145 64.1125 23.1258 64.1101 23.1093 64.1072C22.18 64.0173 21.4269 63.3148 21.2838 62.3892L19.9531 53.7806C20.0257 54.2499 20.6352 54.6148 21.6821 54.8745C22.0419 54.9611 22.454 55.0398 22.9148 55.1029C23.5403 55.1888 24.2562 55.2525 25.0493 55.2937C25.4334 55.3122 25.8332 55.3283 26.2528 55.3332C26.9131 55.3493 27.6167 55.3506 28.3581 55.3354C28.7438 55.3295 29.1417 55.3162 29.548 55.3044C30.2205 55.2783 30.9159 55.2434 31.6392 55.1987C32.0278 55.1763 32.4208 55.1477 32.8216 55.1179C33.4957 55.0674 34.19 55.0084 34.8992 54.9417C35.2856 54.9061 35.6796 54.8668 36.0784 54.8239C36.7545 54.7516 37.4461 54.6743 38.1468 54.5874C38.5338 54.5383 38.9262 54.4883 39.3211 54.4381C39.9997 54.3465 40.6858 54.2512 41.381 54.1465C41.6305 54.1107 41.8795 54.0722 42.1287 54.0337C42.2676 54.0122 42.4092 53.9903 42.5478 53.9661C43.2428 53.8587 43.9259 53.7451 44.6004 53.6273C44.9925 53.5587 45.382 53.4904 45.7658 53.4203C46.4601 53.2914 47.1405 53.1595 47.8099 53.0265C48.2003 52.9473 48.5879 52.866 48.9701 52.7854C49.6667 52.6375 50.3442 52.487 51.0052 52.3339C51.3963 52.2412 51.7794 52.1497 52.157 52.0564C52.8582 51.8862 53.5344 51.7093 54.1834 51.5311C54.5755 51.4276 54.9588 51.32 55.3289 51.2118C56.038 51.0055 56.7091 50.7971 57.3371 50.5873C57.7335 50.459 58.1132 50.3277 58.4742 50.1968C59.2112 49.9272 59.8761 49.6606 60.4554 49.3965C60.8694 49.209 61.2411 49.0254 61.567 48.8408C62.6886 48.2111 63.2758 47.6157 63.1956 47.0965Z" fill="#FFAE5E"/>
<path opacity="0.4" d="M22.9151 55.103L24.3195 64.1888C23.9346 64.1651 23.5471 64.1417 23.1614 64.1128C23.1452 64.1126 23.1261 64.1102 23.1095 64.1073L21.6824 54.8748C22.0421 54.9614 22.4544 55.0399 22.9151 55.103Z" fill="#FF4400"/>
<path opacity="0.4" d="M26.2531 55.3333L27.6438 64.3298C27.2425 64.3221 26.8432 64.3086 26.4406 64.293L25.0496 55.2938C25.4337 55.3122 25.8335 55.3283 26.2531 55.3333Z" fill="#FF4400"/>
<path opacity="0.4" d="M29.5483 55.3045L30.9475 64.3562C30.5505 64.3585 30.151 64.3613 29.7531 64.3583L28.3584 55.3354C28.7441 55.3296 29.142 55.3163 29.5483 55.3045Z" fill="#FF4400"/>
<path opacity="0.4" d="M32.822 55.118L34.235 64.2588C33.8408 64.2795 33.4433 64.2952 33.0473 64.3054L31.6396 55.1987C32.0282 55.1763 32.4212 55.1477 32.822 55.118Z" fill="#FF4400"/>
<path opacity="0.4" d="M36.0786 54.824L37.5042 64.0462C37.1095 64.0803 36.717 64.1115 36.3209 64.1379L34.8994 54.9418C35.2858 54.9063 35.6798 54.8668 36.0786 54.824Z" fill="#FF4400"/>
<path opacity="0.4" d="M39.3216 54.4382L40.7556 63.7154C40.3628 63.7626 39.9724 63.8069 39.5788 63.8491L38.1472 54.5876C38.5343 54.5384 38.9265 54.4885 39.3216 54.4382Z" fill="#FF4400"/>
<path opacity="0.4" d="M42.5479 53.9662L43.9852 63.2645C43.5975 63.3271 43.2069 63.3875 42.818 63.4422L41.3811 54.1466C41.6306 54.1108 41.8796 54.0723 42.1288 54.0338C42.2679 54.0123 42.4094 53.9904 42.5479 53.9662Z" fill="#FF4400"/>
<path opacity="0.4" d="M45.7659 53.4205L47.1996 62.6951C46.8116 62.7738 46.4257 62.8469 46.0361 62.9151L44.6005 53.6274C44.9927 53.5589 45.3821 53.4906 45.7659 53.4205Z" fill="#FF4400"/>
<path opacity="0.4" d="M48.9703 52.7856L50.395 62.0024C50.0095 62.0969 49.626 62.1858 49.2385 62.2671L47.8101 53.0267C48.2006 52.9475 48.5881 52.8662 48.9703 52.7856Z" fill="#FF4400"/>
<path opacity="0.4" d="M52.1573 52.0568L53.5699 61.195C53.1887 61.2996 52.8045 61.402 52.4229 61.5039L51.0055 52.3342C51.3964 52.2415 51.7797 52.15 52.1573 52.0568Z" fill="#FF4400"/>
<path opacity="0.4" d="M55.3291 51.2121L56.7279 60.2611C56.3491 60.3814 55.9672 60.4995 55.5872 60.612L54.1836 51.5314C54.5757 51.4278 54.9592 51.3202 55.3291 51.2121Z" fill="#FF4400"/>
<path opacity="0.4" d="M58.4744 50.1969L59.8671 59.2067C59.4881 59.3431 59.1084 59.4744 58.7309 59.6024L57.3374 50.5875C57.7337 50.4591 58.1134 50.328 58.4744 50.1969Z" fill="#FF4400"/>
<path opacity="0.4" d="M61.5672 48.8409L62.9871 58.0263C62.6105 58.1785 62.2359 58.325 61.8581 58.4693L60.4557 49.3967C60.8697 49.2092 61.2413 49.0256 61.5672 48.8409Z" fill="#FF4400"/>
<path d="M43.2114 51.4427C54.3532 49.7204 61.8848 38.6164 60.0337 26.6412C58.1826 14.6661 47.6498 6.35443 36.508 8.0767C25.3662 9.79898 17.8346 20.903 19.6857 32.8782C21.5368 44.8533 32.0696 53.165 43.2114 51.4427Z" fill="#FFAE5E"/>
<path opacity="0.4" d="M43.2114 51.4427C54.3532 49.7204 61.8848 38.6164 60.0337 26.6412C58.1826 14.6661 47.6498 6.35443 36.508 8.0767C25.3662 9.79898 17.8346 20.903 19.6857 32.8782C21.5368 44.8533 32.0696 53.165 43.2114 51.4427Z" fill="#FF4400"/>
<path d="M57.5979 27.0177C57.9307 29.1705 57.961 31.2949 57.7189 33.3406C57.6692 33.7833 57.6052 34.22 57.5275 34.6562C57.1184 36.9774 56.3583 39.1811 55.2973 41.1921C55.0925 41.5863 54.8728 41.9719 54.6415 42.3513C53.3669 44.4572 51.7476 46.3131 49.8493 47.8228C49.5057 48.1014 49.1493 48.366 48.7855 48.6182C46.7316 50.0419 44.3951 51.0795 41.8555 51.6198C41.4995 51.6962 41.1393 51.7627 40.7748 51.819C40.7014 51.8304 40.6279 51.8417 40.5541 51.8504C37.9484 52.2237 35.3815 52.0486 32.9519 51.4066C32.524 51.2956 32.0989 51.168 31.6826 51.0283C29.3202 50.2309 27.1176 48.9901 25.1695 47.3823C24.8281 47.1022 24.4957 46.8098 24.1722 46.5055C22.4406 44.891 20.9517 42.9707 19.7827 40.8103C19.5726 40.424 19.3721 40.0307 19.1863 39.6271C18.2655 37.6647 17.6018 35.5254 17.2508 33.2546L17.2472 33.231C17.1791 32.7905 17.1248 32.3532 17.0843 31.9166C16.8468 29.494 16.9904 27.1225 17.4693 24.8711C17.5577 24.436 17.6609 24.0093 17.778 23.5858C18.3836 21.355 19.3221 19.2635 20.5431 17.3832C20.7808 17.0109 21.0338 16.6496 21.2958 16.295C22.6704 14.4367 24.335 12.8209 26.2359 11.5364C26.6004 11.2894 26.9748 11.0544 27.3566 10.8316C29.3221 9.68735 31.5063 8.87994 33.8517 8.49053C33.9247 8.47652 33.9982 8.46515 34.0716 8.45381C34.436 8.39748 34.7996 8.35205 35.162 8.31744C37.4977 8.09058 39.7959 8.2992 41.9784 8.88803C42.4067 9.00169 42.8293 9.12973 43.246 9.27206C45.3523 9.9935 47.3337 11.07 49.1164 12.4428C49.4666 12.7109 49.808 12.991 50.1404 13.2833C51.7575 14.6952 53.1861 16.3645 54.3544 18.2431C54.589 18.6149 54.8114 18.994 55.0219 19.383C55.9984 21.1678 56.7563 23.1179 57.2444 25.1984C57.345 25.6232 57.4332 26.0552 57.5091 26.4946C57.5409 26.6668 57.5708 26.842 57.5979 27.0177Z" fill="#FFAE5E"/>
<path opacity="0.4" d="M40.9947 29.2565L57.7187 33.3405C57.669 33.7832 57.6049 34.2199 57.5273 34.6562L40.7862 30.5668L55.297 41.1921C55.0921 41.5862 54.8725 41.9719 54.6412 42.3512L40.0063 31.6351L49.8489 47.8227C49.5054 48.1014 49.1489 48.3659 48.7852 48.6181L38.8715 32.3181L41.8551 51.6197C41.4992 51.6962 41.1389 51.7626 40.7744 51.819C40.701 51.8303 40.6275 51.8417 40.5537 51.8504L37.5656 32.5198L32.9516 51.4065C32.5237 51.2955 32.0985 51.1679 31.6823 51.0282L36.2802 32.2111L25.1692 47.3822C24.8278 47.1021 24.4954 46.8097 24.1718 46.5054L35.2117 31.4285L19.7825 40.8102C19.5723 40.4239 19.3719 40.0306 19.1861 39.6271L34.4334 30.3541L17.247 33.231C17.1788 32.7904 17.1246 32.3531 17.0841 31.9165L34.4279 29.0153L17.469 24.8711C17.5575 24.4359 17.6606 24.0092 17.7778 23.5857L34.6363 27.7052L20.5429 17.3832C20.7806 17.0108 21.0336 16.6495 21.2956 16.2949L35.4188 26.6365L26.2355 11.5362C26.6 11.2892 26.9744 11.0542 27.3562 10.8314L36.5508 25.9539L33.8513 8.49033C33.9243 8.47633 33.9978 8.46496 34.0712 8.45362C34.4356 8.39729 34.7992 8.35186 35.1617 8.31724L37.8567 25.7519L41.978 8.88784C42.4063 9.0015 42.829 9.12954 43.2456 9.27187L39.1447 26.0603L49.1161 12.4427C49.4662 12.7108 49.8076 12.9909 50.14 13.2832L40.2108 26.8433L54.354 18.2431C54.5887 18.615 54.811 18.9941 55.0216 19.3831L40.9892 27.9179L57.2442 25.1985C57.3448 25.6232 57.433 26.0553 57.5089 26.4946L40.9947 29.2565Z" fill="#FF4400"/>
<path d="M55.0312 28.7996C55.0373 28.8738 55.0438 28.9506 55.0499 29.025C55.4988 34.9159 53.3556 40.4343 49.5676 44.1878C47.0993 46.6314 43.9303 48.3267 40.3222 48.8845C36.8112 49.4272 33.3717 48.8177 30.3374 47.3216C25.522 44.9489 21.733 40.3422 20.3253 34.5699C20.2957 34.4483 20.2663 34.3266 20.2394 34.2046C20.1374 33.7532 22.6567 19.3786 22.6567 19.3786C25.2686 15.1893 29.468 12.1695 34.5262 11.3876C39.579 10.6065 44.4853 12.2108 48.2388 15.4081L55.0312 28.7996Z" fill="#FFAE5E"/>
<path opacity="0.34" d="M55.0312 28.7996C55.0373 28.8738 55.0438 28.9506 55.0499 29.025C55.4988 34.9159 53.3556 40.4343 49.5676 44.1878C47.0993 46.6314 43.9303 48.3267 40.3222 48.8845C36.8112 49.4272 33.3717 48.8177 30.3374 47.3216C25.522 44.9489 21.733 40.3422 20.3253 34.5699C20.2957 34.4483 20.2663 34.3266 20.2394 34.2046C20.1374 33.7532 22.6567 19.3786 22.6567 19.3786C25.2686 15.1893 29.468 12.1695 34.5262 11.3876C39.579 10.6065 44.4853 12.2108 48.2388 15.4081L55.0312 28.7996Z" fill="#FF4400"/>
<g opacity="0.55">
<path d="M40.0652 46.6125C38.7433 46.8489 38.4664 45.3055 38.326 44.339C37.1953 44.1322 34.5164 43.6071 34.3843 42.453C34.2687 41.7959 34.745 41.1463 35.3916 41.0494C36.2334 40.9646 37.0673 41.637 37.8535 41.7323C37.8069 40.9266 37.682 40.1216 37.533 39.355C31.7533 39.9093 32.5337 34.1578 36.4318 32.0851C36.2542 30.9101 35.8473 29.4383 37.2733 29.1587C38.6586 28.9954 38.7056 30.3848 38.812 31.4859C40.157 31.5933 40.6242 31.3422 41.4196 32.0531C41.996 32.7593 41.5547 33.8821 40.6555 33.9963C40.2323 34.0495 39.6361 33.9614 39.2143 33.9427L39.6398 36.6957C44.551 36.6998 46.1534 43.202 40.8155 44.3011C41.117 45.2777 41.2007 46.3653 40.0652 46.6125ZM37.1307 36.8983L36.8063 34.8C36.5613 35.0578 36.3571 35.2898 36.196 35.5319C35.7876 36.146 36.2853 36.9605 37.0208 36.9067C37.0568 36.9041 37.0935 36.9013 37.1307 36.8983ZM40.2552 41.8687C42.4342 41.6928 41.8722 39.3521 40.034 39.2458C40.1005 39.8793 40.3603 41.3988 40.2552 41.8687Z" fill="#FF4400"/>
</g>
<path d="M39.5029 46.6994C38.181 46.9358 37.904 45.3924 37.7637 44.4258C36.633 44.2191 33.9541 43.694 33.8221 42.5399C33.7064 41.8828 34.1827 41.2331 34.8294 41.1363C35.6712 41.0515 36.5051 41.7239 37.2912 41.8192C37.2447 41.0135 37.1197 40.2085 36.9708 39.4419C31.1911 39.9962 31.9714 34.2447 35.8695 32.172C35.692 30.997 35.285 29.5252 36.711 29.2456C38.0963 29.0823 38.1435 30.4717 38.2498 31.5728C39.5947 31.6802 40.0619 31.429 40.8573 32.14C41.4337 32.8462 40.9924 33.969 40.0933 34.0832C39.67 34.1364 39.0738 34.0482 38.652 34.0296L39.0776 36.7826C43.9888 36.7867 45.5911 43.2889 40.2532 44.3879C40.5546 45.3646 40.6383 46.4522 39.5029 46.6994ZM36.5684 36.9852L36.244 34.8868C35.886 35.2637 35.6152 35.5854 35.4385 35.964C35.2137 36.446 35.5683 37.0082 36.1002 37.0093C36.2462 37.0095 36.4 36.9986 36.5684 36.9852ZM39.693 41.9556C41.8719 41.7797 41.3099 39.439 39.4718 39.3327C39.5382 39.9662 39.7979 41.4857 39.693 41.9556Z" fill="#FFAE5E"/>
<g opacity="0.43">
<path d="M52.8673 30.5321C54.1026 33.7745 53.0617 38.5812 50.3135 40.6679C50.113 40.8202 49.8405 40.6074 49.935 40.3745C50.5418 38.8779 50.9777 37.4557 51.2572 35.8666C51.499 34.5758 51.9621 32.0146 52.2194 30.5882C52.2802 30.2505 52.7453 30.212 52.8673 30.5321Z" fill="white"/>
<path d="M49.7531 41.175C50.1193 41.4769 50.2603 42.0718 49.7778 42.4518C49.4399 42.7178 48.8915 42.6547 48.6258 42.3193C48.36 41.9839 48.4245 41.4362 48.7613 41.1687C49.1093 40.8922 49.4894 40.9575 49.7531 41.175Z" fill="white"/>
</g>
<path d="M41.9264 20.348C42.1386 21.7521 42.0029 23.1144 41.5903 24.317C40.8215 26.5758 38.9547 27.2676 36.7324 27.6111C34.5143 27.9502 32.4932 27.867 31.0891 25.9517C30.3363 24.9216 29.7994 23.6556 29.586 22.2441C29.5768 22.1844 29.5736 22.1313 29.5644 22.0717C33.6297 20.4039 37.7326 19.7124 41.8884 20.1666C41.8982 20.23 41.9166 20.2846 41.9264 20.348Z" fill="#0F2713"/>
<path d="M41.5899 24.317C40.8212 26.5758 39.0851 28.2734 36.863 28.6169C34.6449 28.956 32.493 27.867 31.0888 25.9518C32.1476 24.5768 33.9242 23.5264 36.0498 23.1978C38.166 22.8706 40.1709 23.3288 41.5899 24.317Z" fill="#FF4400"/>
<path d="M38.2592 17.6858C38.4481 18.893 39.0724 19.7982 39.6537 19.7074C40.2351 19.6166 40.5532 18.5644 40.3644 17.3571C40.1756 16.1498 39.5512 15.2447 38.9699 15.3354C38.3884 15.4262 38.0702 16.4785 38.2592 17.6858Z" fill="#0F2713"/>
<path d="M30.3922 18.79C30.5812 19.9973 31.2054 20.9025 31.7868 20.8116C32.3681 20.7208 32.6863 19.6685 32.4973 18.4612C32.3085 17.2539 31.6841 16.3488 31.1028 16.4397C30.5216 16.5304 30.2034 17.5829 30.3922 18.79Z" fill="#0F2713"/>
<path d="M36.6374 12.7418C37.4613 12.7372 38.1979 12.8376 38.9473 13.131C39.7158 13.4051 40.3479 13.8576 41.0937 14.238C41.1381 14.2636 41.1967 14.2474 41.2178 14.1994C40.5278 12.5533 38.1615 11.5627 36.5869 12.5803C36.5149 12.6259 36.5527 12.7465 36.6374 12.7418Z" fill="#0F2713"/>
<path d="M32.3879 13.7877C31.6014 14.0331 30.9301 14.3521 30.3051 14.8589C29.6562 15.353 29.1913 15.9759 28.5962 16.5644C28.5617 16.6022 28.501 16.6048 28.4661 16.5654C28.6236 14.7876 30.5775 13.1265 32.3868 13.6187C32.4694 13.64 32.4699 13.7663 32.3879 13.7877Z" fill="#0F2713"/>
<path d="M29.2672 25.705C29.902 29.8113 27.0888 33.6531 22.9825 34.2879C22.0437 34.433 21.1173 34.3963 20.2392 34.2045C20.1372 33.7531 20.0504 33.2967 19.9787 32.8326C19.2187 27.9161 20.2888 23.1677 22.6565 19.3785C25.9582 19.738 28.7362 22.27 29.2672 25.705Z" fill="#FF4400"/>
<path d="M54.8666 27.4397C54.9367 27.8933 54.9911 28.3494 55.0311 28.7996C54.2365 29.2688 53.3418 29.595 52.3743 29.7446C48.2706 30.3789 44.4287 27.5658 43.7939 23.4595C43.2597 20.0035 45.1705 16.7333 48.2384 15.408C51.648 18.3067 54.1054 22.5153 54.8666 27.4397Z" fill="#FF4400"/>
<path d="M23.7365 46.956C23.6637 46.4852 21.9846 46.3426 19.8187 46.5841C19.395 44.4463 18.7519 42.8886 18.2811 42.9614C17.8103 43.0342 17.6676 44.7134 17.9091 46.8793C15.7715 47.303 14.2138 47.9461 14.2866 48.417C14.3593 48.8878 16.0385 49.0304 18.2043 48.7889C18.628 50.9265 19.2711 52.4841 19.7419 52.4113C20.2127 52.3385 20.3554 50.6595 20.1139 48.4936C22.2517 48.07 23.8093 47.4269 23.7365 46.956Z" fill="#64C466"/>
<path d="M62.8983 13.8754C62.8255 13.4046 61.1465 13.262 58.9806 13.5035C58.5569 11.3658 57.9138 9.80805 57.443 9.88083C56.9722 9.95361 56.8295 11.6328 57.071 13.7987C54.9334 14.2226 53.3756 14.8655 53.4484 15.3364C53.5212 15.8072 55.2004 15.9498 57.3662 15.7083C57.7899 17.8459 58.4328 19.4036 58.9037 19.3308C59.3745 19.258 59.5173 17.5789 59.2757 15.413C61.4134 14.9894 62.9711 14.3464 62.8983 13.8754Z" fill="#0C1A4B"/>
<path d="M66.9093 40.3321L63.0644 34.662C62.741 34.1852 62.0089 34.2983 61.8447 34.8505L59.8913 41.417C59.7483 41.8975 60.1547 42.3631 60.6501 42.2866L61.9259 42.0893L62.2529 44.2046C62.3356 44.7398 62.8367 45.1068 63.372 45.024L64.6803 44.8218C65.2155 44.7391 65.5825 44.2379 65.4998 43.7027L65.1728 41.5874L66.4486 41.3902C66.9439 41.3137 67.1907 40.7471 66.9093 40.3321Z" fill="#64C466"/>
<path d="M19.5967 16.2413L15.7518 10.5711C15.4284 10.0943 14.6963 10.2075 14.5319 10.7597L12.5786 17.3262C12.4356 17.8067 12.8419 18.2723 13.3374 18.1958L14.6132 17.9986L14.9401 20.1138C15.0229 20.649 15.5239 21.016 16.0593 20.9333L17.3675 20.731C17.9028 20.6483 18.2698 20.1473 18.187 19.6119L17.86 17.4967L19.1358 17.2995C19.6313 17.2229 19.878 16.6563 19.5967 16.2413Z" fill="#0C1A4B"/>
</g>
<defs>
<clipPath id="clip0_127_2100">
<rect width="69" height="69" fill="white" transform="translate(0.634521 11.1753) rotate(-8.78711)"/>
</clipPath>
</defs>
</svg>
