<svg width="77" height="88" viewBox="0 0 77 88" fill="none" xmlns="http://www.w3.org/2000/svg">
<g opacity="0.8" clip-path="url(#clip0_127_1975)">
<path d="M47.4077 44.2034C46.7155 43.2427 38.9414 23.6553 37.5412 21.3151C36.141 18.975 33.9422 19.6099 33.7842 21.2434C33.4634 24.5604 36.7124 44.0386 36.7124 44.0386L47.4077 44.2034Z" fill="#599EFC"/>
<path d="M48.5101 83.6801L69.4138 75.8758C69.4138 75.8758 72.1914 78.6307 71.6044 78.8498C71.0175 79.0689 48.7142 87.3958 48.7142 87.3958L48.5101 83.6801Z" fill="black"/>
<path d="M59.1838 60.1444C59.7507 61.184 74.0504 76.6638 75.555 78.9382C77.0596 81.2127 75.5325 81.7828 73.9951 82.3568C72.4577 82.9308 54.7075 69.8594 54.7075 69.8594L59.1838 60.1444Z" fill="#599EFC"/>
<path d="M44.9597 65.4549C45.2129 66.6117 44.5564 87.6752 44.9105 90.3792C45.2646 93.0832 46.7916 92.5131 48.3291 91.9391C49.8665 91.3651 54.7075 69.8594 54.7075 69.8594L44.9597 65.4549Z" fill="#599EFC"/>
<path d="M71.3933 39.7862C72.965 43.2201 73.8665 46.92 74.0466 50.6746C74.2266 54.4293 73.6816 58.1652 72.4426 61.669C71.2036 65.1729 69.2949 68.376 66.8255 71.0956C64.3561 73.8152 61.3744 75.9979 58.0505 77.5192C54.7267 79.0405 51.1258 79.8705 47.4536 79.9619C43.7813 80.0533 40.1095 79.4043 36.6479 78.0519C33.1862 76.6995 30.0025 74.6702 27.2785 72.0798C24.5545 69.4895 22.3436 66.3889 20.7719 62.955C19.2003 59.5211 18.2987 55.8212 18.1187 52.0665C17.9386 48.3119 18.4837 44.576 19.7226 41.0721C20.9616 37.5683 22.8703 34.3651 25.3397 31.6456C27.8091 28.926 30.7908 26.7432 34.1147 25.222C37.4385 23.7007 41.0394 22.8706 44.7117 22.7792C48.384 22.6878 52.0557 23.3369 55.5174 24.6893C58.979 26.0417 62.1627 28.071 64.8867 30.6613C67.6107 33.2517 69.8217 36.3523 71.3933 39.7862Z" fill="black"/>
<path d="M76.6856 37.364C79.8597 44.299 80.2371 52.1705 77.7349 59.2468C75.2326 66.3232 70.0557 72.0246 63.3429 75.097C56.63 78.1694 48.9313 78.361 41.9402 75.6297C34.9491 72.8984 29.2383 67.4678 26.0642 60.5328C22.8901 53.5977 22.5127 45.7262 25.015 38.6499C27.5172 31.5736 32.6942 25.8721 39.407 22.7997C46.1198 19.7274 53.8186 19.5358 60.8097 22.2671C67.8008 24.9984 73.5115 30.4289 76.6856 37.364Z" fill="#0C1A4B"/>
<path d="M42.6927 29.9791C32.4899 34.6489 28.169 46.9898 32.9292 57.3903C37.6894 67.7908 49.8544 72.5877 60.0573 67.918C70.2601 63.2483 74.5805 50.9063 69.8203 40.5058C65.0601 30.1053 52.8955 25.3094 42.6927 29.9791ZM45.0807 35.1973C52.3697 31.8613 61.0908 35.2249 64.6015 42.8953C68.1121 50.5657 64.9567 59.3631 57.6678 62.6992C50.3788 66.0352 41.6591 62.6722 38.1485 55.0019C34.6378 47.3315 37.7918 38.5334 45.0807 35.1973Z" fill="white"/>
<path d="M55.9863 46.8378C56.2726 47.4634 56.4369 48.1375 56.4697 48.8216C56.5025 49.5057 56.4032 50.1863 56.1775 50.8247C55.9517 51.463 55.604 52.0466 55.1541 52.5421C54.7042 53.0376 54.1609 53.4353 53.5554 53.7124C52.9498 53.9896 52.2937 54.1408 51.6247 54.1575C50.9556 54.1741 50.2867 54.0559 49.656 53.8095C49.0253 53.5631 48.4453 53.1934 47.949 52.7214C47.4527 52.2495 47.0499 51.6846 46.7635 51.059C46.4772 50.4333 46.3129 49.7593 46.2801 49.0752C46.2473 48.3911 46.3466 47.7105 46.5724 47.0721C46.7981 46.4337 47.1459 45.8502 47.5958 45.3547C48.0457 44.8592 48.5889 44.4615 49.1945 44.1844C49.8 43.9072 50.4561 43.756 51.1251 43.7393C51.7942 43.7227 52.4632 43.8409 53.0938 44.0873C53.7245 44.3337 54.3046 44.7034 54.8009 45.1754C55.2971 45.6473 55.7 46.2122 55.9863 46.8378Z" fill="#FD6B6A"/>
<path d="M67.6366 26.0839L50.7609 50.0165C50.7609 50.0165 51.0975 52.9999 58.2907 46.095C63.4426 41.1495 70.0461 35.048 73.4495 31.9177C71.7902 29.7041 69.8324 27.7391 67.6366 26.0839Z" fill="black"/>
<path d="M70.1222 28.7299C70.1222 28.7299 64.6141 30.3461 66.1449 27.4979C67.6757 24.6496 70.599 21.0969 71.6428 20.6727C72.6865 20.2486 75.5017 19.8277 75.7323 20.6741C75.9629 21.5205 71.2253 28.4326 70.1222 28.7299Z" fill="#599EFC"/>
<path d="M49.7527 47.9778C49.7527 47.9778 48.7171 49.3689 49.9411 50.4439C51.165 51.5189 52.2094 50.5723 52.6968 49.9403C52.89 49.6898 74.8581 18.5084 74.2343 16.8166C73.6106 15.1247 70.7178 12.856 69.408 13.6747C68.0982 14.4934 49.7527 47.9778 49.7527 47.9778Z" fill="#80D092"/>
<path d="M67.5723 16.3787C65.9264 19.0753 63.4073 23.4675 60.7722 28.14C61.3581 29.4318 64.7479 25.9065 66.8265 21.5555C68.0829 18.9256 67.9304 17.2935 67.5723 16.3787Z" fill="black"/>
<path d="M67.8213 17.3641C67.8213 17.3641 66.9966 11.6833 65.0447 14.2612C63.0928 16.8392 61.0804 20.9766 61.1295 22.1022C61.1786 23.2278 61.9685 25.9625 62.834 25.8196C63.6996 25.6766 68.0105 18.4907 67.8213 17.3641Z" fill="#599EFC"/>
<path d="M59.9983 52.0722C54.7904 52.6461 57.2127 53.708 64.511 53.307C71.8092 52.906 73.1061 50.6343 71.6711 49.025C70.2361 47.4158 66.0888 50.99 59.9983 52.0722Z" fill="#FD6B6A"/>
<path d="M47.3776 42.5659C44.3793 37.727 43.1891 34.0601 44.5125 31.5402C45.8358 29.0203 47.8224 33.224 47.6941 36.0723C47.5658 38.9206 48.678 42.3783 48.618 43.1753C48.5581 43.9723 48.1404 43.6515 47.3776 42.5659Z" fill="#FD6B6A"/>
<path d="M51.3155 34.6011C50.9668 31.7521 51.9688 30.1268 52.9408 31.1343C53.9127 32.1418 52.2226 35.2753 51.7903 36.0326C51.358 36.7898 51.3155 34.6011 51.3155 34.6011Z" fill="#FD6B6A"/>
<path d="M67.881 42.6583C70.2012 41.8763 72.9553 41.3536 73.5213 39.7099C74.0873 38.0661 72.9119 37.8518 71.152 39.2883C69.3921 40.7248 65.311 43.6178 67.881 42.6583Z" fill="#FD6B6A"/>
<path d="M30.1128 56.8865C30.2267 57.1916 30.2148 57.5295 30.0796 57.8258C29.9443 58.1221 29.697 58.3525 29.3918 58.4665C29.2408 58.5229 29.0801 58.549 28.9189 58.5433C28.7577 58.5376 28.5993 58.5002 28.4525 58.4332C28.3058 58.3663 28.1737 58.2711 28.0638 58.1531C27.9539 58.0351 27.8683 57.8966 27.8118 57.7455C27.7554 57.5944 27.7293 57.4337 27.7351 57.2725C27.7408 57.1114 27.7781 56.9529 27.8451 56.8062C27.912 56.6595 28.0072 56.5274 28.1252 56.4175C28.2432 56.3075 28.3817 56.2219 28.5328 56.1655C28.6839 56.1091 28.8446 56.083 29.0058 56.0887C29.1669 56.0944 29.3254 56.1318 29.4721 56.1988C29.6188 56.2657 29.7509 56.3609 29.8609 56.4789C29.9708 56.5969 30.0564 56.7354 30.1128 56.8865Z" fill="#599EFC"/>
<path d="M75.0859 40.0959C75.1423 40.247 75.1684 40.4077 75.1627 40.5689C75.157 40.7301 75.1196 40.8885 75.0527 41.0352C74.9857 41.182 74.8906 41.3141 74.7726 41.424C74.6546 41.5339 74.5161 41.6195 74.365 41.6759C74.0599 41.7898 73.722 41.7779 73.4257 41.6427C73.1294 41.5075 72.8989 41.2601 72.785 40.955C72.6711 40.6499 72.683 40.312 72.8182 40.0157C72.9534 39.7194 73.2008 39.4889 73.5059 39.375C73.657 39.3186 73.8177 39.2925 73.9789 39.2982C74.1401 39.3039 74.2985 39.3413 74.4453 39.4082C74.592 39.4752 74.7241 39.5704 74.834 39.6884C74.9439 39.8064 75.0295 39.9448 75.0859 40.0959Z" fill="#599EFC"/>
<path d="M59.4146 70.2568C59.5657 70.2003 59.7264 70.1743 59.8876 70.18C60.0488 70.1857 60.2072 70.2231 60.354 70.29C60.5007 70.357 60.6328 70.4521 60.7427 70.5701C60.8526 70.6881 60.9382 70.8266 60.9946 70.9777C61.1086 71.2828 61.0966 71.6207 60.9614 71.917C60.8262 72.2133 60.5788 72.4438 60.2737 72.5577C59.9686 72.6716 59.6307 72.6597 59.3344 72.5245C59.0381 72.3893 58.8076 72.1419 58.6937 71.8368C58.6373 71.6857 58.6112 71.525 58.6169 71.3638C58.6226 71.2026 58.66 71.0442 58.7269 70.8974C58.7939 70.7507 58.8891 70.6186 59.0071 70.5087C59.1251 70.3988 59.2636 70.3132 59.4146 70.2568Z" fill="#599EFC"/>
<path d="M42.6241 25.2837C42.7752 25.2273 42.9359 25.2012 43.0971 25.2069C43.2582 25.2126 43.4167 25.25 43.5634 25.3169C43.7101 25.3839 43.8422 25.4791 43.9522 25.5971C44.0621 25.715 44.1477 25.8535 44.2041 26.0046C44.318 26.3097 44.3061 26.6476 44.1709 26.9439C44.0357 27.2402 43.7883 27.4707 43.4832 27.5846C43.178 27.6985 42.8402 27.6866 42.5438 27.5514C42.2475 27.4162 42.0171 27.1688 41.9032 26.8637C41.8468 26.7126 41.8207 26.5519 41.8264 26.3907C41.8321 26.2295 41.8695 26.0711 41.9364 25.9244C42.0034 25.7776 42.0985 25.6455 42.2165 25.5356C42.3345 25.4257 42.473 25.3401 42.6241 25.2837Z" fill="#599EFC"/>
<path d="M72.1683 58.375C72.2353 58.2283 72.3305 58.0962 72.4485 57.9862C72.5665 57.8763 72.705 57.7907 72.856 57.7343C73.0071 57.6779 73.1678 57.6518 73.329 57.6575C73.4902 57.6632 73.6486 57.7006 73.7954 57.7675C74.0917 57.9027 74.3221 58.1501 74.436 58.4552C74.55 58.7604 74.538 59.0982 74.4028 59.3946C74.2676 59.6909 74.0202 59.9213 73.7151 60.0352C73.41 60.1492 73.0721 60.1372 72.7758 60.002C72.6291 59.9351 72.497 59.8399 72.387 59.7219C72.2771 59.6039 72.1915 59.4654 72.1351 59.3143C72.0787 59.1632 72.0526 59.0025 72.0583 58.8413C72.064 58.6802 72.1014 58.5217 72.1683 58.375Z" fill="#599EFC"/>
<path d="M28.495 38.4469C28.5619 38.3002 28.6571 38.1681 28.7751 38.0581C28.8931 37.9482 29.0316 37.8626 29.1827 37.8062C29.3338 37.7498 29.4945 37.7237 29.6557 37.7294C29.8168 37.7351 29.9753 37.7725 30.122 37.8394C30.4183 37.9746 30.6488 38.222 30.7627 38.5271C30.8766 38.8323 30.8647 39.1701 30.7294 39.4665C30.5942 39.7628 30.3469 39.9932 30.0417 40.1071C29.7366 40.2211 29.3987 40.2091 29.1024 40.0739C28.9557 40.0069 28.8236 39.9118 28.7137 39.7938C28.6038 39.6758 28.5182 39.5373 28.4618 39.3862C28.4053 39.2351 28.3792 39.0744 28.385 38.9132C28.3907 38.7521 28.428 38.5936 28.495 38.4469Z" fill="#599EFC"/>
<path d="M40.975 71.8747C40.8283 71.8077 40.6962 71.7125 40.5863 71.5945C40.4763 71.4765 40.3907 71.3381 40.3343 71.187C40.2779 71.0359 40.2518 70.8752 40.2575 70.714C40.2632 70.5528 40.3006 70.3944 40.3676 70.2477C40.5028 69.9514 40.7501 69.7209 41.0553 69.607C41.3604 69.4931 41.6983 69.505 41.9946 69.6402C42.2909 69.7754 42.5213 70.0228 42.6353 70.3279C42.7492 70.633 42.7372 70.9709 42.602 71.2672C42.5351 71.414 42.4399 71.546 42.3219 71.656C42.2039 71.7659 42.0654 71.8515 41.9143 71.9079C41.7632 71.9643 41.6025 71.9904 41.4413 71.9847C41.2802 71.979 41.1217 71.9416 40.975 71.8747Z" fill="#599EFC"/>
</g>
<defs>
<clipPath id="clip0_127_1975">
<rect width="80" height="80" fill="white" transform="translate(0.535889 28.5171) rotate(-20.4729)"/>
</clipPath>
</defs>
</svg>
