<svg width="73" height="88" viewBox="0 0 73 88" fill="none" xmlns="http://www.w3.org/2000/svg">
<g opacity="0.6">
<path fill-rule="evenodd" clip-rule="evenodd" d="M56.3416 78.575L64.4674 66.9962C64.4674 66.9962 70.756 57.3186 68.1954 55.4749C65.6349 53.6314 55.6124 64.4078 55.6124 64.4078L54.1159 68.8069L49.8973 74.6932C49.8973 74.6932 51.1073 76.4612 52.925 77.3616C54.7426 78.2621 56.3416 78.575 56.3416 78.575Z" fill="#ABF0CF"/>
<path fill-rule="evenodd" clip-rule="evenodd" d="M56.4381 78.8033L64.6391 67.1152C68.8894 60.576 70.1496 56.6804 68.3212 55.3638C66.4723 54.0333 62.2425 57.0363 55.4678 64.3212L55.4414 64.3489L53.942 68.7588L49.67 74.7197L49.7359 74.8157C50.5596 76.0202 51.5933 76.9304 52.836 77.5464C54.0631 78.1535 55.2199 78.5642 56.3054 78.7776L56.4381 78.8033ZM55.9627 64.3397C62.3714 57.4788 66.445 54.585 68.0313 55.6101L68.0782 55.6428C69.6645 56.7843 68.4393 60.5697 64.3072 66.9294L56.2556 78.4024L56.2165 78.3944C55.2482 78.1873 54.2154 77.8158 53.1191 77.2815L53.0225 77.2335C51.8852 76.6709 50.9305 75.846 50.1575 74.7571L50.1337 74.7233L54.2983 68.9117L55.7919 64.5234L55.9627 64.3397Z" fill="black"/>
<path fill-rule="evenodd" clip-rule="evenodd" d="M47.8732 58.2777C47.8732 58.2777 51.2098 63.3327 54.48 69.6433C55.1672 70.9704 55.1672 70.5989 55.7246 69.7447C57.7619 66.6264 64.0954 57.6905 64.0954 57.6905C64.0954 57.6905 63.8094 47.9808 61.1015 44.9267C58.3945 41.8726 54.1266 44.2797 54.1266 44.2797L47.8732 58.2777Z" fill="#0089FF"/>
<path fill-rule="evenodd" clip-rule="evenodd" d="M53.9518 44.1405L54.0055 44.11C56.9301 42.4605 59.3657 42.6864 61.2361 44.7965C63.0752 46.872 64.0807 51.1575 64.273 57.6671L64.274 57.7221L63.2558 59.1605C59.7435 64.1283 57.3391 67.5953 56.0447 69.5589L55.8749 69.8176C55.8212 69.9002 55.704 70.0896 55.6308 70.2069C55.6103 70.2407 55.5927 70.2691 55.582 70.286L55.5527 70.3313C55.4531 70.4851 55.3799 70.5705 55.2862 70.6247C55.0939 70.7358 54.9075 70.6638 54.7454 70.4691C54.6351 70.3385 54.5092 70.1278 54.3257 69.7784L54.1743 69.4878C52.0336 65.3704 49.871 61.6584 47.6881 58.3507L47.6378 58.2745L53.9518 44.1405ZM63.8766 57.4843C63.6746 51.2199 62.7043 47.0808 60.9852 45.0803L60.9325 45.0198C59.1929 43.0577 56.978 42.8523 54.2114 44.4123L54.2651 44.3822L48.073 58.2438L48.2493 58.5122C50.3622 61.7429 52.4553 65.3508 54.5277 69.3358L54.6761 69.622C54.8489 69.9518 54.967 70.1473 55.0558 70.254L55.0666 70.2664C55.0773 70.278 55.0861 70.2878 55.0949 70.2958L55.1017 70.3029L55.1076 70.2976C55.1291 70.2744 55.1574 70.238 55.1925 70.1864L55.2208 70.1447L55.2345 70.1242C55.2394 70.1162 55.2589 70.0842 55.2862 70.0398C55.3516 69.934 55.46 69.7589 55.5225 69.662L55.7099 69.3767C56.9916 67.4309 59.3579 64.018 62.8077 59.1374L63.8806 57.6218L63.8766 57.4843Z" fill="black"/>
<path fill-rule="evenodd" clip-rule="evenodd" d="M0.205933 41.2823L7.64836 30.2397C7.64836 30.2397 14.0771 21.3971 16.8606 22.6098C19.6441 23.8225 13.7377 35.9959 13.7377 35.9959L10.2506 38.9652L6.5033 44.647C6.5033 44.647 4.35091 44.4446 2.75641 43.415C1.16191 42.3853 0.205933 41.2823 0.205933 41.2823Z" fill="#ABF0CF"/>
<path fill-rule="evenodd" clip-rule="evenodd" d="M0 41.3389L7.51721 30.1854C11.8644 24.2061 14.9817 21.6242 16.9766 22.4933C18.9947 23.3726 17.9442 27.8753 13.9479 36.1116L13.9318 36.1448L10.4355 39.122L6.63845 44.8793L6.51496 44.8676C5.04746 44.7297 3.76641 44.3085 2.67514 43.6038C1.59772 42.908 0.733992 42.1858 0.084439 41.4363L0 41.3389ZM13.7063 35.7291C17.452 27.9643 18.464 23.6324 16.858 22.8373L16.8081 22.8141C15.0916 22.0662 12.0674 24.5709 7.84638 30.3766L0.475988 41.3124L0.497074 41.336C1.09147 41.9948 1.86373 42.6354 2.81415 43.2573L2.90102 43.3137C3.89527 43.9558 5.05762 44.3504 6.39089 44.4972L6.43208 44.5015L10.129 38.8962L13.6067 35.9347L13.7063 35.7291Z" fill="black"/>
<path fill-rule="evenodd" clip-rule="evenodd" d="M8.49308 38.9652L15.7952 27.5678C15.7952 27.5678 21.6685 22.5175 28.8999 24.6556C36.1314 26.7937 20.787 40.9214 20.787 40.9214C20.787 40.9214 17.1616 39.7139 14.3125 39.7139C11.4635 39.7139 8.07263 39.7139 8.07263 39.7139L8.49308 38.9652Z" fill="#0089FF"/>
<path fill-rule="evenodd" clip-rule="evenodd" d="M8.35591 38.9195L15.6722 27.5001L15.8118 27.3809C19.7481 24.0522 24.1505 23.099 28.9918 24.5304C31.5268 25.28 32.0925 27.1099 30.6967 29.9085C29.3326 32.6433 26.0871 36.3673 20.9573 41.0903L20.8691 41.1715L20.6375 41.0945C18.2868 40.3214 16.1887 39.9356 14.344 39.9356H7.78503L8.35073 38.9281L8.35591 38.9195ZM30.3411 29.7615C31.6496 27.1382 31.1569 25.5444 28.8711 24.8686C24.1277 23.4661 19.8403 24.4145 15.9811 27.7236L15.9611 27.7407C15.9677 27.735 15.9744 27.7293 15.9811 27.7236L8.6966 39.0932L8.42327 39.5799L14.344 39.58C16.2072 39.58 18.3104 39.9612 20.6543 40.7222L20.7675 40.7592L20.9804 40.5626C25.8561 36.0455 28.9636 32.469 30.3003 29.8424L30.3411 29.7615Z" fill="black"/>
<path d="M9.42013 75.2897C13.6523 75.2897 17.0832 72.1656 17.0832 68.3118C17.0832 64.4581 13.6523 61.334 9.42013 61.334C5.18794 61.334 1.75708 64.4581 1.75708 68.3118C1.75708 72.1656 5.18794 75.2897 9.42013 75.2897Z" fill="white"/>
<path fill-rule="evenodd" clip-rule="evenodd" d="M17.1148 68.3553C17.1148 64.5019 13.684 61.3778 9.45174 61.3778C5.21959 61.3778 1.7887 64.5019 1.7887 68.3553C1.7887 72.2096 5.21959 75.3331 9.45174 75.3331C13.684 75.3331 17.1148 72.2096 17.1148 68.3553ZM2.17917 68.3553C2.17917 64.6984 5.43523 61.7334 9.45174 61.7334C13.4683 61.7334 16.7243 64.6984 16.7243 68.3553C16.7243 72.0131 13.4683 74.9776 9.45174 74.9776C5.43523 74.9776 2.17917 72.0131 2.17917 68.3553Z" fill="black"/>
<path d="M28.651 81.8674C31.4814 81.8674 33.7759 79.778 33.7759 77.2006C33.7759 74.6233 31.4814 72.5339 28.651 72.5339C25.8205 72.5339 23.526 74.6233 23.526 77.2006C23.526 79.778 25.8205 81.8674 28.651 81.8674Z" fill="white"/>
<path fill-rule="evenodd" clip-rule="evenodd" d="M33.8077 77.2443C33.8077 74.6674 31.5132 72.5776 28.6827 72.5776C25.8523 72.5776 23.5577 74.6674 23.5577 77.2443C23.5577 79.8221 25.8523 81.911 28.6827 81.911C31.5132 81.911 33.8077 79.8221 33.8077 77.2443ZM23.9482 77.2443C23.9482 74.8639 26.0679 72.9332 28.6827 72.9332C31.2975 72.9332 33.4172 74.8639 33.4172 77.2443C33.4172 79.6257 31.2975 81.5555 28.6827 81.5555C26.0679 81.5555 23.9482 79.6257 23.9482 77.2443Z" fill="black"/>
<path d="M9.46906 82.1341C10.763 82.1341 11.8119 81.179 11.8119 80.0008C11.8119 78.8226 10.763 77.8674 9.46906 77.8674C8.17515 77.8674 7.12622 78.8226 7.12622 80.0008C7.12622 81.179 8.17515 82.1341 9.46906 82.1341Z" fill="white"/>
<path fill-rule="evenodd" clip-rule="evenodd" d="M11.8433 80.0443C11.8433 78.8665 10.7944 77.9109 9.50044 77.9109C8.2065 77.9109 7.15759 78.8665 7.15759 80.0443C7.15759 81.223 8.2065 82.1777 9.50044 82.1777C10.7944 82.1777 11.8433 81.223 11.8433 80.0443ZM7.54807 80.0443C7.54807 79.063 8.42224 78.2665 9.50044 78.2665C10.5787 78.2665 11.4528 79.063 11.4528 80.0443C11.4528 81.0265 10.5787 81.8221 9.50044 81.8221C8.42224 81.8221 7.54807 81.0265 7.54807 80.0443Z" fill="black"/>
<path d="M17.9618 87.5565C20.0105 87.5565 21.6713 86.0442 21.6713 84.1787C21.6713 82.3131 20.0105 80.8008 17.9618 80.8008C15.9131 80.8008 14.2523 82.3131 14.2523 84.1787C14.2523 86.0442 15.9131 87.5565 17.9618 87.5565Z" fill="white"/>
<path fill-rule="evenodd" clip-rule="evenodd" d="M21.7031 84.2221C21.7031 82.3572 20.0423 80.8443 17.9936 80.8443C15.9448 80.8443 14.2841 82.3572 14.2841 84.2221C14.2841 86.0879 15.9448 87.5999 17.9936 87.5999C20.0423 87.5999 21.7031 86.0879 21.7031 84.2221ZM14.6745 84.2221C14.6745 82.5536 16.1606 81.1999 17.9936 81.1999C19.8266 81.1999 21.3126 82.5536 21.3126 84.2221C21.3126 85.8915 19.8266 87.2444 17.9936 87.2444C16.1606 87.2444 14.6745 85.8915 14.6745 84.2221Z" fill="black"/>
<path d="M20.3534 79.2008C26.9039 79.2008 32.2141 74.3654 32.2141 68.4007C32.2141 62.4359 26.9039 57.6006 20.3534 57.6006C13.803 57.6006 8.4928 62.4359 8.4928 68.4007C8.4928 74.3654 13.803 79.2008 20.3534 79.2008Z" fill="white"/>
<path fill-rule="evenodd" clip-rule="evenodd" d="M32.2458 68.4443C32.2458 62.4799 26.9357 57.6445 20.3852 57.6445C13.8348 57.6445 8.52454 62.4799 8.52454 68.4443C8.52454 74.4097 13.8348 79.2444 20.3852 79.2444C26.9357 79.2444 32.2458 74.4097 32.2458 68.4443ZM8.91501 68.4443C8.91501 62.6763 14.0504 58.0001 20.3852 58.0001C26.72 58.0001 31.8553 62.6763 31.8553 68.4443C31.8553 74.2132 26.72 78.8888 20.3852 78.8888C14.0504 78.8888 8.91501 74.2132 8.91501 68.4443Z" fill="black"/>
<path fill-rule="evenodd" clip-rule="evenodd" d="M15.3248 51.9117L12.2269 56.5674C12.2269 56.5674 11.6071 57.2596 12.7343 58.6858C13.8616 60.112 18.8138 63.7446 23.0487 66.1189C27.2837 68.4932 31.5826 70.3199 33.575 70.5865C35.5675 70.8532 36.1353 70.4603 36.9146 69.3928C37.694 68.3252 39.2426 66.0629 39.2426 66.0629L15.3248 51.9117Z" fill="#204EB2"/>
<path fill-rule="evenodd" clip-rule="evenodd" d="M15.2941 51.7065L39.5415 66.0531L39.2942 66.414C38.4295 67.6753 37.7532 68.6433 37.2649 69.3207L37.1091 69.5349C36.2034 70.7758 35.4951 71.0629 33.5786 70.806C31.5548 70.5349 27.2394 68.7029 22.9783 66.3144L22.8543 66.2442C18.7535 63.9289 13.7819 60.3191 12.6078 58.8334C11.8155 57.831 11.625 57.0499 12.0987 56.5088L12.0982 56.5093L15.2941 51.7065ZM39.0073 66.1606L15.4191 52.2045L12.4187 56.714L12.4101 56.7236C12.0684 57.1051 12.2189 57.7327 12.9247 58.6258C14.0729 60.0785 19.0997 63.7221 23.183 66.0113C27.4017 68.3766 31.6789 70.1927 33.6354 70.4549C35.4024 70.6913 35.9618 70.4638 36.784 69.3384L36.8349 69.2682C37.258 68.686 37.8418 67.8549 38.5859 66.774L39.0073 66.1606Z" fill="black"/>
<path fill-rule="evenodd" clip-rule="evenodd" d="M15.2507 41.8726L10.8606 48.4666C10.8606 48.4666 9.98237 49.4471 11.5798 51.4671C13.1772 53.487 20.1951 58.6321 26.1964 61.9947C32.1977 65.3571 38.2899 67.9447 41.1134 68.3224C43.9369 68.7011 44.7414 68.1438 45.8458 66.6318C46.9504 65.1197 49.1448 61.9154 49.1448 61.9154L15.2507 41.8726Z" fill="#ABF0CF"/>
<path fill-rule="evenodd" clip-rule="evenodd" d="M15.1454 41.6893L49.1022 61.9466L49.0016 62.0949C47.6376 64.1039 46.5916 65.6148 45.8632 66.6291L45.6877 66.8718C44.4497 68.5624 43.4774 68.9464 40.8402 68.59C38.0086 68.2078 31.9489 65.6131 25.9663 62.2316C20.1762 58.9586 13.0678 53.7636 11.408 51.6462C10.3114 50.2471 10.052 49.171 10.6924 48.4369L15.1454 41.6893ZM48.6141 61.9785L15.2755 42.1337L11.0118 48.5806L11.0033 48.5902C10.5038 49.1514 10.7031 50.0457 11.6604 51.2912L11.7246 51.3739C13.3487 53.4411 20.4313 58.6058 26.1872 61.8523C32.134 65.2068 38.1625 67.7811 40.9304 68.1544C42.2919 68.3384 43.1626 68.2975 43.8137 68.0318C44.3972 67.7926 44.8327 67.3802 45.4413 66.5411L45.4688 66.5037C46.0698 65.6735 46.9095 64.4714 47.9878 62.8962L48.6141 61.9785Z" fill="black"/>
<path d="M30.1247 54.8014C39.4843 60.3361 48.0001 63.5212 49.1453 61.9155C50.2904 60.3097 43.6313 54.5213 34.2717 48.9866C24.9122 43.4519 16.3964 40.2668 15.2512 41.8726C14.106 43.4783 20.7651 49.2667 30.1247 54.8014Z" fill="#65CB9A"/>
<path fill-rule="evenodd" clip-rule="evenodd" d="M49.1768 61.9594C50.3219 60.3536 43.6628 54.5652 34.3032 49.0305C24.9436 43.4959 16.4278 40.3108 15.2827 41.9165C14.1375 43.5222 20.7966 49.3107 30.1562 54.8454C39.5158 60.38 48.0316 63.5651 49.1768 61.9594ZM21.67 43.1645C25.1733 44.4853 29.5992 46.6728 34.0905 49.3287L34.2265 49.4093C38.7078 52.0679 42.6848 54.857 45.4096 57.2255L45.4784 57.2854C46.7338 58.382 47.6803 59.3554 48.2625 60.148L48.3246 60.2337C48.87 60.9989 49.0188 61.528 48.8493 61.7657C48.6797 62.0035 48.0883 62.0949 47.0989 61.9524C46.0359 61.7992 44.6033 61.39 42.8952 60.7511L42.7893 60.7114C39.2861 59.3905 34.8602 57.2031 30.3688 54.5472L30.2329 54.4666C25.7517 51.808 21.7746 49.0189 19.0498 46.6504L18.9809 46.5905C17.68 45.454 16.7107 44.4498 16.1349 43.6421C15.5894 42.877 15.4406 42.3479 15.6102 42.1102C15.7796 41.8724 16.371 41.781 17.3606 41.9235C18.4234 42.0767 19.8561 42.4859 21.5641 43.1247L21.67 43.1645Z" fill="black"/>
<path fill-rule="evenodd" clip-rule="evenodd" d="M18.4856 41.4745C18.4856 41.4745 25.9575 24.2269 35.3736 14.2523C44.7897 4.27773 67.5091 0.156708 67.5091 0.156708C67.5091 0.156708 77.3119 17.6318 68.5184 33.0961C59.725 48.5605 48.0589 59.0111 48.0589 59.0111C48.0589 59.0111 43.2243 60.9496 30.213 53.3194C17.2018 45.6893 18.4856 41.4745 18.4856 41.4745Z" fill="#ABF0CF"/>
<path fill-rule="evenodd" clip-rule="evenodd" d="M67.6466 0L67.714 0.119733C74.2769 11.8192 74.6156 22.8594 68.7234 33.2218C62.8516 43.5474 56.0203 52.201 48.2273 59.1818L48.2018 59.2047L48.169 59.2178C44.8625 60.5435 38.8673 58.6314 30.1388 53.5129C21.3907 48.3828 17.4392 44.3917 18.3288 41.4709L18.3354 41.4532C23.3241 29.9376 28.964 20.8466 35.257 14.1803C41.5671 7.49598 52.3166 2.78074 67.5022 0.0263105L67.6466 0ZM67.4329 0.401515L67.1263 0.457782C52.2581 3.2091 41.7354 7.86319 35.5531 14.4121C29.2913 21.0453 23.6724 30.1025 18.6986 41.5837L18.7027 41.5743L18.6819 41.6472C17.9682 44.3159 21.7582 48.1427 30.0936 53.0629L30.3502 53.2139C38.9701 58.2688 44.8721 60.1512 48.0117 58.8924L47.9796 58.9047L48.186 58.7192C55.7743 51.8721 62.4465 43.4215 68.2001 33.3666L68.3768 33.0584C74.2086 22.8016 73.8737 11.8822 67.3665 0.281513L67.4329 0.401515Z" fill="black"/>
<path fill-rule="evenodd" clip-rule="evenodd" d="M32.1981 17.8934C32.1981 17.8934 37.359 10.6332 47.5772 5.69943C57.795 0.765692 67.5091 0.156708 67.5091 0.156708C67.5091 0.156708 73.4882 11.081 72.676 20.1902C71.8648 29.2995 66.5934 36.3881 66.5934 36.3881C66.5934 36.3881 56.4606 32.3853 49.1452 28.5096C41.8295 24.6339 32.1981 17.8934 32.1981 17.8934Z" fill="#0089FF"/>
<path fill-rule="evenodd" clip-rule="evenodd" d="M67.6565 0.0151062L67.7151 0.121327C71.7155 7.43135 73.4463 14.1407 72.9025 20.2485C72.3588 26.3515 70.3196 31.7801 66.7858 36.5317L66.695 36.6538L66.3377 36.5125C59.6655 33.8697 53.9118 31.2681 49.0785 28.7072L48.9316 28.6292C44.1782 26.1003 38.6997 22.673 32.4953 18.347L31.9679 17.9784L32.0657 17.8408C35.5254 12.9737 40.677 8.88906 47.5172 5.58636C54.3531 2.28597 61.0224 0.431108 67.5267 0.0232823L67.6565 0.0151062ZM67.4232 0.386396L67.3598 0.390576C60.9745 0.819114 54.4214 2.65531 47.7002 5.90041C41.0518 9.11057 36.0197 13.0592 32.6008 17.7461L32.4918 17.8965L32.9162 18.1925C39.033 22.4498 44.4374 25.8264 49.1285 28.3222L49.2748 28.3998C53.9938 30.9001 59.5952 33.4409 66.079 36.0217L66.5534 36.2099L66.6686 36.0523C70.0033 31.4668 71.9459 26.2506 72.4965 20.4009L72.513 20.2198C73.0509 14.182 71.3367 7.53562 67.3656 0.279906L67.4232 0.386396Z" fill="black"/>
<path d="M30.3896 44.3071C34.8811 46.391 40.6154 44.3393 43.1976 39.7246C45.7799 35.1098 44.2321 29.6795 39.7407 27.5956C35.2492 25.5117 29.5148 27.5634 26.9326 32.1782C24.3504 36.7929 25.8981 42.2232 30.3896 44.3071Z" fill="#204EB2"/>
<path fill-rule="evenodd" clip-rule="evenodd" d="M43.2291 39.7685C45.8114 35.1537 44.2637 29.7235 39.7722 27.6395C35.2808 25.5557 29.5464 27.6074 26.9642 32.2221C24.382 36.8369 25.9297 42.2671 30.4211 44.3511C34.9126 46.4349 40.6469 44.3832 43.2291 39.7685ZM27.3121 32.3835C29.8008 27.9358 35.3057 25.9663 39.5949 27.9563C43.8843 29.9465 45.37 35.1593 42.8812 39.6071C40.3926 44.0548 34.8877 46.0243 30.5984 44.0343C26.3091 42.0441 24.8233 36.8313 27.3121 32.3835Z" fill="black"/>
<path d="M32.0615 40.7918C34.5553 41.9488 37.7471 40.7954 39.1907 38.2156C40.6342 35.6358 39.7829 32.6065 37.2891 31.4495C34.7953 30.2924 31.6034 31.4458 30.1599 34.0256C28.7163 36.6054 29.5677 39.6347 32.0615 40.7918Z" fill="white"/>
<path fill-rule="evenodd" clip-rule="evenodd" d="M39.2674 38.1786C40.7359 35.5541 39.8626 32.4689 37.3166 31.2877C34.7706 30.1064 31.5162 31.2765 30.0476 33.9009C28.5791 36.5254 29.4525 39.6106 31.9984 40.7918C34.5444 41.9731 37.7988 40.803 39.2674 38.1786ZM30.3955 34.0623C31.7708 31.6046 34.7958 30.5172 37.1393 31.6045C39.4828 32.6918 40.2947 35.5594 38.9195 38.0171C37.5442 40.4749 34.5192 41.5623 32.1757 40.475C29.8322 39.3877 29.0204 36.5201 30.3955 34.0623Z" fill="black"/>
</g>
</svg>
