<svg width="108" height="100" viewBox="0 0 108 100" fill="none" xmlns="http://www.w3.org/2000/svg">
<g opacity="0.8">
<path d="M89.6541 3.64536L54.8228 34.2053L73.8698 50.8319L108.702 20.272L89.6541 3.64536Z" fill="#CDFFEC"/>
<path d="M89.3457 20.4776C93.5492 24.1563 93.5492 30.1649 89.3457 33.8437C85.1415 37.5224 78.276 37.5224 74.0726 33.8437C69.8684 30.1649 69.8684 24.1563 74.0726 20.4776C78.276 16.7989 85.1415 16.7989 89.3457 20.4776Z" fill="white"/>
<path d="M83.4609 25.3824C82.9006 25.3824 82.1996 25.6276 81.4992 25.9955L80.939 26.2408C80.7982 26.2408 80.7982 26.3634 80.6581 26.3634C80.2379 26.486 79.9577 26.6086 79.6776 26.6086C79.3975 26.6086 79.1174 26.486 78.8365 26.2408C78.5564 25.9955 78.4163 25.7503 78.4163 25.505C78.4163 25.2598 78.5564 25.0145 78.8365 24.7693C79.1174 24.524 79.3975 24.4014 79.6776 24.4014C79.9577 24.4014 80.378 24.524 80.6581 24.7693L82.3396 23.2978C81.7794 22.9299 81.3591 22.6847 80.6581 22.562C80.0978 22.4394 79.3975 22.4394 78.8365 22.562C78.5564 22.6847 78.2762 22.6847 77.9961 22.9299L76.4546 21.581L75.7543 22.1942L75.0532 22.8073L76.5947 24.1562C76.4546 24.4014 76.3146 24.6467 76.3146 24.8919C76.1745 25.3824 76.1745 25.9955 76.3146 26.486C76.4546 26.9765 76.7348 27.467 77.1557 27.8348C77.5759 28.2028 77.9961 28.448 78.6964 28.5706C79.2574 28.6933 79.8177 28.6933 80.378 28.5706C80.6581 28.5706 81.079 28.448 81.4992 28.2028C81.4992 28.2028 81.6393 28.0801 81.9194 27.9575C82.0595 27.8348 82.1996 27.8348 82.3396 27.8348C82.9006 27.5896 83.3208 27.467 83.601 27.467C84.1612 27.467 84.5821 27.5896 84.8623 27.9575C85.1424 28.2028 85.2825 28.5706 85.2825 28.9385C85.2825 29.3064 85.1424 29.6742 84.7222 29.9195C84.4414 30.1647 84.0212 30.2874 83.601 30.41C83.1808 30.41 82.7606 30.2874 82.4797 30.0421L80.7982 31.5136C81.2191 31.8814 81.6393 32.1267 81.9194 32.1267C82.3396 32.2494 82.7605 32.3719 83.3208 32.3719C84.1612 32.3719 84.8623 32.2494 85.5626 31.7589L86.964 32.9851L87.6644 32.3719L88.3654 31.7589L86.824 30.41C86.964 30.1647 87.1041 29.9195 87.2442 29.5516C87.3842 28.9385 87.3842 28.3253 87.2442 27.7123C87.1041 27.0991 86.6839 26.6086 86.263 26.1181C85.5626 25.505 84.5821 25.2598 83.4609 25.3824Z" fill="#42AF71"/>
<path d="M52.4937 34.212L73.9326 52.9735L111.205 20.2328L89.626 1.47134L52.4937 34.212ZM77.856 45.2481C75.6142 43.2862 72.111 43.2862 70.0086 45.2481L61.3215 37.6454C63.4232 35.6835 63.4232 32.7405 61.3215 30.7785L85.7026 9.31927C87.9444 11.1586 91.3075 11.1586 93.5493 9.19663L102.237 16.7993C100.135 18.7613 100.135 21.8269 102.237 23.6663L77.856 45.2481Z" fill="#4CD7AD"/>
<path d="M71.9031 2.00645L49.2439 40.3445L73.1391 51.1604L95.7983 12.8224L71.9031 2.00645Z" fill="#CDFFEC"/>
<path d="M77.4357 18.1486C82.7597 20.6011 84.8621 26.2418 82.0593 30.9015C79.2573 35.5613 72.8113 37.4006 67.4865 34.9481C62.1618 32.4956 60.0601 26.8549 62.8629 22.1952C65.5249 17.5355 72.1109 15.6961 77.4357 18.1486Z" fill="white"/>
<path d="M73.3716 24.4019C72.8113 24.6471 72.251 25.015 71.6908 25.5055L71.2698 25.7507C71.1298 25.8734 71.1298 25.8734 70.9897 25.8734C70.7096 26.1186 70.2894 26.3639 70.1493 26.3639C69.8692 26.4865 69.5883 26.3639 69.1681 26.2412C68.888 26.1186 68.6078 25.8734 68.4678 25.6281C68.3277 25.3829 68.3277 25.1376 68.6078 24.7697C68.7479 24.5245 69.028 24.2792 69.3082 24.1566C69.5883 24.034 70.0092 24.034 70.2894 24.1566L71.4099 22.3173C70.8496 22.072 70.1493 21.9494 69.5883 21.9494C69.028 21.9494 68.3277 22.1946 67.9075 22.4399C67.6266 22.5625 67.4866 22.8078 67.2064 22.9304L65.3848 22.072L64.9646 23.1756L64.5444 23.9114L66.366 24.7697C66.366 25.015 66.226 25.2602 66.226 25.5055C66.226 26.1186 66.366 26.6091 66.7862 27.0996C67.0664 27.5901 67.6266 27.958 68.1876 28.2032C68.7479 28.4485 69.3082 28.5711 69.8692 28.5711C70.4294 28.5711 70.9897 28.4485 71.5507 28.2032C71.8308 28.0806 72.111 27.8354 72.3911 27.5901C72.3911 27.5901 72.5312 27.4675 72.8113 27.2222C72.9514 27.0996 73.0914 26.977 73.0914 26.977C73.5124 26.6091 73.7925 26.4865 74.2127 26.3639C74.6329 26.2412 75.1932 26.2412 75.6141 26.4865C76.0343 26.7317 76.3144 26.977 76.4545 27.3449C76.5946 27.7127 76.5946 28.0806 76.3144 28.4485C76.3144 28.4485 76.3144 28.4485 76.3144 28.5711C76.0343 28.939 75.7542 29.1842 75.474 29.3068C75.0531 29.4295 74.6329 29.4295 74.2127 29.1842L73.0914 31.0236C73.6524 31.2688 74.0726 31.3915 74.4928 31.3915C74.913 31.3915 75.474 31.3915 75.8942 31.2688C76.7346 31.0236 77.2956 30.6557 77.8559 30.1652L79.6775 31.0236L80.0977 30.2878L80.5179 29.4295L78.6963 28.5711C78.8364 28.3258 78.8364 27.958 78.8364 27.5901C78.8364 26.977 78.5562 26.3639 78.2761 25.8734C77.8559 25.3829 77.4357 24.8924 76.7346 24.6471C75.474 24.034 74.4928 23.9114 73.3716 24.4019Z" fill="#42AF71"/>
<path d="M46.8887 40.9565L73.7917 53.0963L98.0328 12.1398L71.1297 0L46.8887 40.9565ZM74.913 44.7579C72.1102 43.5316 68.7479 44.5126 67.3465 46.8424L56.4169 41.9375C57.8183 39.6076 56.697 36.6646 54.035 35.4384L70.0085 8.46106C72.6712 9.68733 76.0343 8.70634 77.4349 6.37643L88.3645 11.404C86.9631 13.7339 88.0844 16.6769 90.7464 17.9031L74.913 44.7579Z" fill="#4CD7AD"/>
<path d="M39.6701 39.4084C43.2201 42.9627 48.3737 48.294 48.3737 48.294C47.6864 51.6509 40.8152 58.2659 37.6088 60.6353L15.1619 37.6313C22.4914 32.2998 33.4854 33.0897 39.6701 39.4084Z" fill="#64C466"/>
<path d="M37.0804 99.3253H27.832V123.973H37.0804V99.3253Z" fill="#64C466"/>
<path d="M100.836 99.3253H91.5876V123.973H100.836V99.3253Z" fill="#64C466"/>
<path d="M38.3937 77.6208H0V88.6565H38.3937V77.6208Z" fill="#64C466"/>
<path d="M120.592 73.0836C119.192 63.2737 113.307 54.6898 104.759 48.9264C97.8927 44.2667 89.2057 41.569 79.8168 41.569H50.3918C32.0355 41.569 11.191 53.3409 9.71339 74.1666H0V83.9386L121.013 76.3566L120.592 73.0836Z" fill="#64C466"/>
<path d="M9.33594 76.3572L121.013 76.3566C121.013 85.7987 116.95 95.7691 110.084 102.146V124.095H100.836V108.645C94.6705 111.833 87.5241 113.672 79.9576 113.672H50.3918C49.1081 113.672 47.9421 113.569 46.6779 113.457C46.5623 113.447 46.4454 113.437 46.3284 113.427V124.095H37.0803V111.71C33.8574 110.729 30.7746 109.38 27.9721 107.786C16.7624 101.287 9.33594 88.987 9.33594 76.3572Z" fill="#64C466"/>
<path d="M86.4028 44.0217H48.4301C47.729 44.0217 47.3088 43.5312 47.3088 43.0407V42.6728C47.3088 42.0597 47.8691 41.6918 48.4301 41.6918H86.4028C87.1032 41.6918 87.5241 42.1823 87.5241 42.6728V43.0407C87.5241 43.6538 87.1032 44.0217 86.4028 44.0217Z" fill="#316D33"/>
<path d="M42.8253 28.0807C49.3254 28.0807 54.5953 23.469 54.5953 17.7802C54.5953 12.0914 49.3254 7.47978 42.8253 7.47978C36.3244 7.47978 31.0547 12.0914 31.0547 17.7802C31.0547 23.469 36.3244 28.0807 42.8253 28.0807Z" fill="#FCC821"/>
<path d="M42.8252 25.5055C38.0608 25.5055 34.1375 22.0721 34.1375 17.9028C34.1375 13.7336 38.0608 10.3001 42.8252 10.3001C47.589 10.3001 51.5123 13.7336 51.5123 17.9028C51.3723 22.0721 47.589 25.5055 42.8252 25.5055ZM42.8252 12.1395C39.1821 12.1395 36.2392 14.7146 36.2392 17.9028C36.2392 21.0911 39.1821 23.6662 42.8252 23.6662C46.4684 23.6662 49.4106 21.0911 49.4106 17.9028C49.4106 14.7146 46.4684 12.1395 42.8252 12.1395Z" fill="#F3941F"/>
<path d="M111.345 35.1925C111.625 36.2962 110.504 36.4187 109.944 36.5414C108.682 36.7867 107.982 37.645 107.281 38.3808C106.861 38.7486 106.861 39.2391 106.861 39.607C106.721 40.3428 106.3 40.588 105.319 40.4653C104.619 39.607 104.759 38.2581 103.638 37.3997C102.657 36.5414 101.116 36.664 100.135 35.8057C100.135 34.9472 100.836 34.8247 101.396 34.702C103.358 34.2115 104.479 33.1079 105.039 31.3912C105.179 31.0233 105.46 30.7781 106.02 30.5328C107.001 31.2686 106.721 32.7401 107.702 33.4758C108.822 34.3342 110.084 34.702 111.345 35.1925Z" fill="#FBB811"/>
<path fill-rule="evenodd" clip-rule="evenodd" d="M35.5043 69.4815C33.5513 69.5005 32.0258 70.0799 31.3638 70.7932C30.7352 71.4699 29.5984 71.5729 28.8247 71.0226C28.0511 70.4729 27.9335 69.4777 28.5622 68.8004C30.1653 67.0742 32.9434 66.347 35.4639 66.3223C38.0212 66.2977 40.881 66.9839 42.8001 68.6879C43.5004 69.309 43.4917 70.3092 42.782 70.9215C42.0723 71.5344 40.9294 71.5268 40.2298 70.9057C39.2045 69.9958 37.4205 69.4626 35.5043 69.4815Z" fill="#316D33"/>
</g>
</svg>
