<svg width="108" height="128" viewBox="0 0 108 128" fill="none" xmlns="http://www.w3.org/2000/svg">
<g opacity="0.8">
<path fill-rule="evenodd" clip-rule="evenodd" d="M61.1784 11.7193C60.3176 11.6007 59.4418 11.5236 58.5757 11.4915L58.5837 11.1204C59.4568 11.1525 60.3398 11.2301 61.2077 11.3497L61.1784 11.7193ZM53.3662 11.8151L53.332 11.4465C54.1963 11.3052 55.0784 11.2063 55.9525 11.152L55.9658 11.5231C55.0984 11.5769 54.2239 11.6747 53.3662 11.8151ZM66.3075 12.9591C65.4725 12.6671 64.6152 12.415 63.7611 12.2085L63.8117 11.8435C64.673 12.0516 65.5368 12.3058 66.379 12.5993L66.3075 12.9591ZM48.2562 13.1811L48.1794 12.8244C49.0184 12.5092 49.8792 12.2333 50.7355 12.0045L50.7914 12.3684C49.9418 12.5957 49.0881 12.8695 48.2562 13.1811ZM71.2346 15.2243C70.4391 14.7656 69.6209 14.3417 68.8028 13.9653L68.8951 13.6149C69.7204 13.9943 70.5452 14.4219 71.3474 14.8842L71.2346 15.2243ZM43.3664 15.5675L43.2496 15.2294C44.0438 14.7475 44.8606 14.3003 45.6783 13.9017L45.7751 14.25C44.9654 14.6455 44.1543 15.0892 43.3664 15.5675ZM75.8421 18.4632C75.1092 17.8488 74.3501 17.2648 73.5852 16.727L73.7175 16.3993C74.4881 16.9413 75.2534 17.5304 75.9926 18.1495L75.8421 18.4632ZM38.8104 18.9141L38.6559 18.604C39.3844 17.9678 40.1408 17.3611 40.9039 16.8L41.0402 17.1245C40.2833 17.6815 39.5331 18.2836 38.8104 18.9141ZM80.0212 22.5909C79.3695 21.8382 78.6863 21.1089 77.9911 20.4219L78.1594 20.1243C78.8603 20.8164 79.5493 21.5524 80.2059 22.3113L80.0212 22.5909ZM34.6914 23.1396L34.5028 22.8647C35.151 22.0887 35.8291 21.3366 36.5184 20.6295L36.6903 20.923C36.0068 21.6249 35.3342 22.3703 34.6914 23.1396ZM83.6782 27.5075C83.1193 26.6326 82.528 25.7744 81.9203 24.9575L82.1209 24.6971C82.7336 25.5208 83.3297 26.3857 83.8926 27.2683L83.6782 27.5075ZM31.1028 28.1442L30.8847 27.9097C31.436 27.0136 32.0208 26.1342 32.6213 25.2966L32.8249 25.5518C32.2291 26.3826 31.6493 27.2554 31.1028 28.1442ZM86.728 33.0991C86.2765 32.1223 85.7904 31.1558 85.2835 30.2266L85.5116 30.0098C86.0226 30.9462 86.5122 31.9204 86.9673 32.9055L86.728 33.0991ZM28.1288 33.8124L27.8865 33.6245C28.3281 32.6285 28.8049 31.6414 29.3032 30.6915L29.5338 30.9037C29.0394 31.8453 28.5664 32.8242 28.1288 33.8124ZM89.0968 39.2363C88.7643 38.1803 88.3954 37.1279 88.0021 36.1076L88.252 35.9389C88.6493 36.9674 89.0204 38.0286 89.356 39.0929L89.0968 39.2363ZM25.8434 40.0158L25.5822 39.8792C25.9036 38.8046 26.2607 37.733 26.6435 36.6936L26.896 36.8561C26.5163 37.8873 26.162 38.9495 25.8434 40.0158ZM90.7273 45.7814C90.5204 44.6685 90.2785 43.5529 90.0077 42.4654L90.2736 42.3494C90.5471 43.4463 90.7917 44.5706 91.0003 45.6923L90.7273 45.7814ZM24.3049 46.607L24.0308 46.5247C24.2234 45.3988 24.4517 44.2688 24.7093 43.1647L24.9774 43.2739C24.7218 44.3692 24.4955 45.4899 24.3049 46.607ZM91.5805 52.5827C91.5046 51.4392 91.3941 50.288 91.2525 49.16L91.5295 49.0995C91.6724 50.2367 91.7834 51.3968 91.8602 52.5501L91.5805 52.5827ZM23.5489 53.429L23.2686 53.4027C23.3289 52.2488 23.4241 51.0851 23.5501 49.9453L23.828 49.9991C23.7028 51.1297 23.6088 52.284 23.5489 53.429ZM91.8957 60.0693L91.6151 60.0417C91.6804 58.9008 91.7137 57.7417 91.7137 56.5938C91.7137 56.4054 91.7124 56.2164 91.711 56.0286L91.9916 56.0239C91.9934 56.2141 91.9943 56.4042 91.9943 56.5938C91.9943 57.7511 91.961 58.9208 91.8957 60.0693ZM23.3011 60.3534C23.2299 59.2037 23.1915 58.0358 23.186 56.8778L23.4671 56.8761C23.4722 58.0234 23.5102 59.1831 23.581 60.3234L23.3011 60.3534ZM91.1011 66.9399L90.8267 66.856C91.0229 65.7404 91.189 64.6006 91.3199 63.4685L91.5978 63.5249C91.466 64.6664 91.2982 65.8155 91.1011 66.9399ZM24.1279 67.2175C23.9255 66.0966 23.7525 64.9487 23.6151 63.806L23.8923 63.7485C24.0289 64.8806 24.2004 66.0185 24.4015 67.1319L24.1279 67.2175ZM89.5176 73.5729L89.2575 73.435C89.5811 72.371 89.8776 71.2782 90.1387 70.1831L90.4063 70.2957C90.1431 71.3985 89.8443 72.5012 89.5176 73.5729ZM25.7416 73.8346C25.4104 72.7659 25.1066 71.6667 24.8389 70.5675L25.1058 70.4536C25.3717 71.5435 25.6731 72.6339 26.0019 73.6938L25.7416 73.8346ZM87.1843 79.8085L86.9424 79.6195C87.3859 78.6336 87.8054 77.6136 88.1898 76.5865L88.4415 76.7509C88.0535 77.7861 87.6309 78.8155 87.1843 79.8085ZM28.101 80.0409C27.65 79.052 27.2229 78.0279 26.8311 76.9968L27.082 76.8301C27.4707 77.8524 27.8947 78.8689 28.3418 79.8502L28.101 80.0409ZM84.159 85.4983L83.9419 85.2624C84.4933 84.378 85.0251 83.4548 85.5236 82.517L85.7536 82.7306C85.2506 83.6761 84.7143 84.6075 84.159 85.4983ZM31.1494 85.7038C30.59 84.8158 30.0494 83.8891 29.5432 82.9495L29.7722 82.7335C30.2744 83.6661 30.81 84.5852 31.3651 85.4655L31.1494 85.7038ZM80.5175 90.5138L80.3302 90.2374C80.9756 89.4727 81.6078 88.6669 82.208 87.8406L82.4104 88.0976C81.8049 88.9304 81.1683 89.7433 80.5175 90.5138ZM34.8124 90.6911C34.1583 89.9252 33.5174 89.1177 32.9095 88.2901L33.1111 88.0307C33.714 88.8518 34.3493 89.6535 34.9988 90.4123L34.8124 90.6911ZM76.3437 94.74L76.191 94.4284C76.9146 93.8051 77.6311 93.1349 78.3205 92.4376L78.4914 92.7323C77.7962 93.4359 77.0735 94.112 76.3437 94.74ZM39.0066 94.8867C38.271 94.2617 37.5452 93.5903 36.8493 92.8937L37.0187 92.5984C37.709 93.2886 38.4291 93.9542 39.1584 94.5745L39.0066 94.8867ZM71.7349 98.0758L71.6195 97.7378C72.4079 97.2671 73.1927 96.7495 73.9527 96.1996L74.0877 96.5259C73.3219 97.0793 72.53 97.601 71.7349 98.0758ZM43.6363 98.1903C42.839 97.7219 42.0444 97.2061 41.2737 96.6562L41.4073 96.3287C42.1713 96.8745 42.9597 97.3862 43.7504 97.8511L43.6363 98.1903ZM66.794 100.441L66.7186 100.083C67.5536 99.7772 68.3895 99.4251 69.2045 99.0348L69.3 99.384C68.4783 99.7772 67.6353 100.133 66.794 100.441ZM48.594 100.516C47.7475 100.214 46.9027 99.8652 46.0819 99.4797L46.176 99.1299C46.9901 99.5125 47.8278 99.8576 48.6668 100.158L48.594 100.516ZM61.6347 101.777L61.6023 101.408C62.4658 101.274 63.3327 101.094 64.1798 100.875L64.2339 101.24C63.3798 101.461 62.5057 101.642 61.6347 101.777ZM53.7591 101.808C52.8908 101.681 52.0158 101.507 51.1577 101.293L51.2096 100.928C52.0606 101.141 52.9289 101.312 53.7897 101.439L53.7591 101.808ZM57.5901 102.087C57.1857 102.087 56.7826 102.078 56.3822 102.06L56.392 101.689C57.259 101.729 58.1468 101.724 59.0014 101.678L59.0129 102.05C58.5464 102.074 58.0674 102.087 57.5901 102.087Z" fill="#56D6A9"/>
<path fill-rule="evenodd" clip-rule="evenodd" d="M107.975 70.9824C107.975 83.9478 100.026 94.4577 90.2184 94.4577C80.4117 94.4577 72.4614 83.9478 72.4614 70.9824C72.4614 58.017 80.4117 47.5071 90.2184 47.5071C100.026 47.5071 107.975 58.017 107.975 70.9824Z" fill="#CBF5C8"/>
<path fill-rule="evenodd" clip-rule="evenodd" d="M81.3398 77.4381H99.0968V62.7661H81.3398V77.4381Z" fill="#95F793"/>
<path fill-rule="evenodd" clip-rule="evenodd" d="M89.968 70.3955C89.9138 70.3955 89.8601 70.3744 89.8131 70.3321L81.4686 62.8928C81.3372 62.7766 81.3004 62.5354 81.3861 62.3558C81.4717 62.1756 81.6475 62.1252 81.7794 62.2425L89.9724 69.5463L98.664 62.2373C98.7976 62.1246 98.973 62.1821 99.0547 62.364C99.1368 62.5471 99.0955 62.7866 98.9614 62.8993L90.1171 70.338C90.071 70.3761 90.0199 70.3955 89.968 70.3955Z" fill="#0C1A4B"/>
<path fill-rule="evenodd" clip-rule="evenodd" d="M81.3399 52.789C81.3399 58.6232 77.7623 63.3529 73.3497 63.3529C68.9362 63.3529 65.3586 58.6232 65.3586 52.789C65.3586 46.955 68.9362 42.2252 73.3497 42.2252C77.7623 42.2252 81.3399 46.955 81.3399 52.789Z" fill="#95F793"/>
<path fill-rule="evenodd" clip-rule="evenodd" d="M77.2284 50.6395C77.5662 50.9707 77.6372 51.6014 77.3869 52.0483L73.7684 58.5041C73.6464 58.7218 73.463 58.865 73.2597 58.902C73.0568 58.939 72.8509 58.8662 72.6893 58.6995L69.6488 55.5785C69.3163 55.2369 69.256 54.6043 69.5143 54.1652C69.7722 53.726 70.2508 53.6464 70.5833 53.9875L73.008 56.477L76.1625 50.8491C76.4134 50.4022 76.8901 50.3084 77.2284 50.6395Z" fill="white"/>
<path fill-rule="evenodd" clip-rule="evenodd" d="M74.0061 32.835H42.0613C40.7078 32.835 39.6108 31.4031 39.6108 29.6367V6.10288C39.6108 4.33596 40.7078 2.90402 42.0613 2.90402H74.9991C75.804 2.90402 76.4565 3.75588 76.4565 4.80611V29.6367C76.4565 31.4031 75.3596 32.835 74.0061 32.835Z" fill="#95F793"/>
<path fill-rule="evenodd" clip-rule="evenodd" d="M73.2237 30.4875H39.2929C38.488 30.4875 37.8354 29.6362 37.8354 28.5854V2.45805C37.8354 1.40784 38.4876 0.556488 39.2929 0.556488H73.2237C74.029 0.556488 74.6811 1.40784 74.6811 2.45805V28.5854C74.6811 29.6362 74.029 30.4875 73.2237 30.4875Z" fill="#56D6A9"/>
<path fill-rule="evenodd" clip-rule="evenodd" d="M37.8354 18.163H74.6811V11.1204H37.8354V18.163Z" fill="#0C0C0C"/>
<path fill-rule="evenodd" clip-rule="evenodd" d="M65.8027 23.4449C65.8027 26.0381 64.2126 28.14 62.2509 28.14C60.2901 28.14 58.7 26.0381 58.7 23.4449C58.7 20.8518 60.2901 18.7499 62.2509 18.7499C64.2126 18.7499 65.8027 20.8518 65.8027 23.4449Z" fill="#83EDC4"/>
<path fill-rule="evenodd" clip-rule="evenodd" d="M71.1299 23.4449C71.1299 26.0381 69.5397 28.14 67.578 28.14C65.6172 28.14 64.0271 26.0381 64.0271 23.4449C64.0271 20.8518 65.6172 18.7499 67.578 18.7499C69.5397 18.7499 71.1299 20.8518 71.1299 23.4449Z" fill="#0C0C0C"/>
<path fill-rule="evenodd" clip-rule="evenodd" d="M64.0271 23.4452C64.0271 24.8307 64.455 26.0753 65.1365 26.9662C65.8188 26.0753 66.2467 24.8307 66.2467 23.4452C66.2467 22.0597 65.8188 20.815 65.1365 19.9236C64.455 20.815 64.0271 22.0597 64.0271 23.4452Z" fill="#5DA086"/>
<path fill-rule="evenodd" clip-rule="evenodd" d="M41.2498 3.15814C40.9701 3.15814 40.6913 3.52829 40.6913 4.07749C40.6913 4.62734 40.9701 4.99743 41.2498 4.99743H50.4022C50.6814 4.99743 50.9611 4.62711 50.9611 4.07749C50.9611 3.52858 50.6818 3.15814 50.4022 3.15814H41.2498ZM40.3069 4.07749C40.3069 3.3311 40.6998 2.6499 41.2498 2.6499H50.4022C50.9517 2.6499 51.3455 3.3308 51.3455 4.07749C51.3455 4.82471 50.9517 5.50567 50.4022 5.50567H41.2498C40.6998 5.50567 40.3069 4.82442 40.3069 4.07749Z" fill="white"/>
<path fill-rule="evenodd" clip-rule="evenodd" d="M41.2742 7.26633C40.9759 7.26633 40.6913 7.64463 40.6913 8.18568C40.6913 8.72743 40.9759 9.10562 41.2742 9.10562H57.0366C57.3349 9.10562 57.6199 8.72725 57.6199 8.18568C57.6199 7.64481 57.3354 7.26633 57.0366 7.26633H41.2742ZM40.3069 8.18568C40.3069 7.43112 40.7157 6.75809 41.2742 6.75809H57.0366C57.5946 6.75809 58.0044 7.43095 58.0044 8.18568C58.0044 8.94094 57.5946 9.61386 57.0366 9.61386H41.2742C40.7157 9.61386 40.3069 8.94076 40.3069 8.18568Z" fill="white"/>
<path fill-rule="evenodd" clip-rule="evenodd" d="M33.3961 37.5304C33.3961 44.0125 29.421 49.2678 24.5179 49.2678C19.6143 49.2678 15.6392 44.0125 15.6392 37.5304C15.6392 31.0477 19.6143 25.7925 24.5179 25.7925C29.421 25.7925 33.3961 31.0477 33.3961 37.5304Z" fill="#FEE526"/>
<path fill-rule="evenodd" clip-rule="evenodd" d="M24.5081 48.094C22.5218 48.094 20.632 47.1319 19.1502 45.356C17.5691 43.4609 16.6405 40.8648 16.5367 38.0465C16.4321 35.2286 17.1639 32.5257 18.5978 30.4349C20.0309 28.3447 21.9947 27.1177 24.1266 26.9794C26.2558 26.84 28.3032 27.8091 29.8844 29.7047C31.4656 31.5992 32.3942 34.1953 32.4983 37.0136C32.6025 39.832 31.8707 42.5349 30.4368 44.6257C29.0037 46.7154 27.0399 47.9429 24.908 48.0812C24.7744 48.0892 24.6408 48.094 24.5081 48.094Z" fill="#FFB902"/>
<path fill-rule="evenodd" clip-rule="evenodd" d="M25.8322 39.8956C25.8322 39.4554 25.6223 39.191 25.2032 38.9276V40.8112C25.6785 40.6524 25.8322 40.2652 25.8322 39.8956ZM24.2241 35.4759V33.6273C23.8187 33.7506 23.6091 34.0853 23.6091 34.5074C23.6091 34.8421 23.7348 35.1236 24.2241 35.4759ZM25.2032 43.6107V45.1596H24.2241V43.6284C22.6441 43.4874 21.4695 42.4657 20.9666 40.7753L22.8962 39.3669C23.1892 40.2121 23.5951 40.7055 24.2241 40.8466V38.4165C24.1683 38.3817 24.0984 38.3639 24.0427 38.3281C22.8264 37.7124 21.372 36.8494 21.372 34.4902C21.372 32.2013 22.742 31.0213 24.2241 30.8449V29.3137H25.2032V30.8808C26.4054 31.0744 27.4118 31.8843 27.9573 33.4337L26.0699 34.8249C25.8884 34.2081 25.6086 33.8563 25.2032 33.6804V36.0573C26.4195 36.7084 28.0693 37.2898 28.0693 39.8603C28.0693 42.0608 26.8667 43.364 25.2032 43.6107Z" fill="white"/>
<path fill-rule="evenodd" clip-rule="evenodd" d="M93.3261 34.3023C93.3261 37.7051 91.2387 40.4645 88.6649 40.4645C86.0901 40.4645 84.0037 37.7051 84.0037 34.3023C84.0037 30.8989 86.0901 28.14 88.6649 28.14C91.2387 28.14 93.3261 30.8989 93.3261 34.3023Z" fill="#FEE526"/>
<path fill-rule="evenodd" clip-rule="evenodd" d="M88.6598 39.8776C87.6113 39.8776 86.6138 39.3698 85.832 38.4325C84.9974 37.4321 84.5074 36.0621 84.4528 34.5753C84.3973 33.0874 84.7839 31.6611 85.5404 30.5578C86.2968 29.454 87.3334 28.8069 88.4583 28.7338C89.5819 28.6602 90.6624 29.1716 91.4969 30.1716C92.332 31.172 92.8216 32.542 92.8771 34.0299C92.9313 35.5173 92.5455 36.9441 91.789 38.0468C91.0321 39.1501 89.996 39.7983 88.8707 39.8708C88.8001 39.8755 88.73 39.8776 88.6598 39.8776Z" fill="#FFB902"/>
<path fill-rule="evenodd" clip-rule="evenodd" d="M89.4038 35.7797C89.4038 35.5351 89.2861 35.3878 89.05 35.2416V36.2876C89.3172 36.2001 89.4038 35.985 89.4038 35.7797ZM88.4991 33.3242V32.297C88.2713 32.3652 88.1528 32.5518 88.1528 32.7867C88.1528 32.9721 88.2243 33.1285 88.4991 33.3242ZM89.05 37.8433V38.7039H88.4991V37.853C87.6108 37.775 86.9502 37.2074 86.667 36.2683L87.7524 35.4856C87.9175 35.9554 88.1457 36.2296 88.4991 36.3075V34.9578C88.468 34.9384 88.4285 34.9282 88.397 34.9089C87.7129 34.5665 86.8947 34.0875 86.8947 32.7765C86.8947 31.5046 87.6658 30.8494 88.4991 30.7516V29.9006H89.05V30.7715C89.7261 30.879 90.293 31.3289 90.5993 32.1895L89.5378 32.9625C89.4353 32.62 89.2782 32.4243 89.05 32.3265V33.6473C89.7345 34.009 90.6623 34.3321 90.6623 35.7598C90.6623 36.9821 89.9858 37.7062 89.05 37.8433Z" fill="white"/>
<path fill-rule="evenodd" clip-rule="evenodd" d="M24.5177 70.3955C24.5177 78.4986 19.5488 85.0676 13.4196 85.0676C7.29051 85.0676 2.32153 78.4986 2.32153 70.3955C2.32153 62.2924 7.29051 55.7235 13.4196 55.7235C19.5488 55.7235 24.5177 62.2924 24.5177 70.3955Z" fill="#FFB902"/>
<path fill-rule="evenodd" clip-rule="evenodd" d="M13.4196 57.2599C7.93245 57.2599 3.48389 63.1411 3.48389 70.3955C3.48389 77.65 7.93245 83.5311 13.4196 83.5311C18.9068 83.5311 23.3553 77.65 23.3553 70.3955C23.3553 63.1411 18.9068 57.2599 13.4196 57.2599ZM0.989746 70.3955C0.989746 61.32 6.555 53.9628 13.4196 53.9628C20.2842 53.9628 25.8495 61.32 25.8495 70.3955C25.8495 79.4711 20.2843 86.8282 13.4196 86.8282C6.55495 86.8282 0.989746 79.4711 0.989746 70.3955Z" fill="#FFCD5F"/>
<path fill-rule="evenodd" clip-rule="evenodd" d="M16.0485 73.5412C16.0485 72.8317 15.59 72.4467 14.9094 72.1433V74.9398C15.7 74.7162 16.0485 74.1897 16.0485 73.5412ZM13.3286 68.6572V65.7797C12.4904 66.0227 12.1578 66.6101 12.1578 67.2792C12.1578 67.9881 12.6318 68.3731 13.3286 68.6572ZM14.9094 77.6142V79.8842H13.3286V77.6752C11.7622 77.5537 10.2592 76.9252 9.38965 76.0537L10.2592 73.5817C11.0505 74.3312 12.1896 74.8793 13.3286 75.0202V71.6362C11.5725 71.0892 9.61108 70.3392 9.61108 67.4412C9.61108 65.2932 10.8288 63.4492 13.3286 63.0841V60.8346H14.9094V63.0437C16.0957 63.1651 17.2506 63.5707 18.1202 64.2796L17.3296 66.7727C16.5224 66.1846 15.7001 65.8401 14.9094 65.7187V69.1631C16.6653 69.6907 18.5956 70.4407 18.5956 73.2983C18.5956 75.4052 17.3935 77.2292 14.9094 77.6142Z" fill="white"/>
<path fill-rule="evenodd" clip-rule="evenodd" d="M99.0114 89.7627H102.591C102.438 91.8637 104.131 120.226 103.969 121.454C102.91 120.988 101.835 120.138 100.766 119.476C100.765 110.902 100.932 102.367 100.931 93.7024C100.212 93.8521 100.375 94.3591 100.374 94.7183C100.364 98.2807 100.368 101.842 100.368 105.404C100.368 110.089 100.503 114.7 100.503 119.455C99.6764 120.008 98.6652 120.712 97.7649 121.315C97.7649 121.315 97.8137 118.103 97.8874 116.649C97.9411 115.593 98.0015 114.536 98.0401 113.477C98.1538 110.347 98.2545 107.216 98.4219 104.09C98.6776 99.3171 98.8907 94.5434 99.0114 89.7627Z" fill="#0C1A4B"/>
<path fill-rule="evenodd" clip-rule="evenodd" d="M100.618 119.107L97.7649 121.08V122.041H103.98L103.972 121.212L100.618 119.107Z" fill="#95F793"/>
<path fill-rule="evenodd" clip-rule="evenodd" d="M92.5293 103.82C92.4263 103.792 92.2896 103.757 92.1529 103.717C90.0141 103.083 89.1684 101.805 89.12 99.0677C89.0956 97.6686 89.1147 96.2665 89.1191 94.8668C89.1191 94.6942 89.1502 94.5223 89.1644 94.3732C89.405 93.9319 89.8822 93.7212 89.8711 93.1073C89.1085 91.4863 88.7338 91.457 87.8015 92.9395C87.8371 93.6226 88.3156 94.0076 88.5527 94.5311C88.5527 96.3815 88.5216 98.1915 88.5607 99.9985C88.613 102.469 90.2897 104.354 92.1893 104.523C94.5629 104.736 96.3799 102.562 96.4661 99.7121C96.5193 97.9667 96.4763 96.2154 96.4763 94.4067C96.9863 93.8978 97.329 93.257 96.9437 92.4559C96.6219 91.788 96.1131 91.7804 95.5857 92.0732C95.3483 92.3913 95.1809 92.7317 95.1529 93.1038C95.1884 93.7194 95.6692 93.9671 95.79 94.497C95.79 96.2325 95.7926 97.9831 95.7895 99.7338C95.7873 100.903 95.4091 101.884 94.7356 102.682C94.1368 103.391 93.3559 103.625 92.5293 103.82ZM98.5658 122.019C93.4158 122.027 88.2654 122.034 83.1155 122.041C83.1998 120.559 83.2131 119.08 83.3516 117.59C83.5883 115.045 83.7498 112.483 83.9607 109.927C84.1662 107.433 84.2439 104.922 84.556 102.439C84.6963 102.423 84.8366 102.406 85.1043 102.376C85.8816 98.2196 86.6682 94.0135 87.4548 89.8084L89.156 89.7627C89.3255 89.7685 89.4956 89.7756 89.6656 89.7832C92.6084 89.7856 95.552 89.7885 98.4952 89.792C98.992 89.7938 99.4883 89.7961 99.9846 89.7985C99.8181 92.8497 99.6303 95.8997 99.4905 98.9532C99.3418 102.192 99.2375 105.434 99.1176 108.674C99.0896 109.429 99.0976 110.186 99.0506 110.939C98.822 114.628 98.636 118.32 98.5658 122.019Z" fill="#56D6A9"/>
<path fill-rule="evenodd" clip-rule="evenodd" d="M83.2334 90.3102C83.3435 89.6159 83.7137 89.0196 83.4398 88.002C84.3028 88.4703 84.9674 88.5237 85.6377 88.4944C85.7642 88.8706 86.0075 88.8324 86.253 88.7872C86.4243 89.3043 86.8034 89.0854 87.0902 89.2022C87.5084 89.3729 88.0127 89.4633 87.9985 90.2732C87.234 94.5968 86.4705 98.9221 85.7145 103.196C85.4548 103.227 85.3185 103.245 85.1822 103.261C83.9357 102.847 82.6896 102.433 81.3418 101.986C81.2797 100.452 82.8938 92.4418 83.2334 90.3102Z" fill="#FD3E81"/>
<path fill-rule="evenodd" clip-rule="evenodd" d="M92.5086 104.291C93.297 104.091 94.0419 103.854 94.6132 103.131C95.2556 102.319 95.6165 101.32 95.6183 100.129C95.6214 98.347 95.6192 96.564 95.6192 94.7969C95.5038 94.2576 95.0452 94.0052 95.011 93.3784C95.0376 92.9993 95.1975 92.653 95.4243 92.3291C95.9273 92.031 96.4129 92.0386 96.7197 92.7188C97.0872 93.5345 96.7605 94.1872 96.2735 94.7048C96.2735 96.547 96.3148 98.33 96.2642 100.108C96.1816 103.01 94.4485 105.223 92.1841 105.007C90.372 104.834 88.7725 102.914 88.7224 100.399C88.6851 98.5588 88.7153 96.716 88.7153 94.8316C88.4893 94.2987 88.0325 93.9066 87.9988 93.2112C88.8875 91.7011 89.2453 91.7311 89.9729 93.382C89.9831 94.007 89.5281 94.2218 89.2986 94.6708C89.2853 94.8228 89.2555 94.9982 89.2551 95.1737C89.2515 96.5992 89.2329 98.0265 89.2564 99.4515C89.3021 102.239 90.1092 103.54 92.1495 104.185C92.2795 104.226 92.4105 104.262 92.5086 104.291Z" fill="#95F793"/>
<path fill-rule="evenodd" clip-rule="evenodd" d="M89.6824 89.7415C89.5709 89.3407 89.5074 88.9052 89.3392 88.5449C88.5157 86.7807 87.1768 86.678 86.0018 88.2626C85.7368 88.3084 85.4726 88.3483 85.3354 87.9615C86.1429 86.5812 87.0885 86.0078 88.0318 86.3276C89.4227 86.7995 90.0788 87.8301 90.2186 89.7627C90.0397 89.755 89.8613 89.748 89.6824 89.7415Z" fill="#95F793"/>
<path fill-rule="evenodd" clip-rule="evenodd" d="M70.242 98.2765C70.242 98.2765 65.7162 89.6969 62.6891 91.089C59.6611 92.4811 61.7409 98.9931 69.7528 98.5436" fill="white"/>
<path fill-rule="evenodd" clip-rule="evenodd" d="M63.4342 92.2927C63.2433 92.2927 63.0595 92.3273 62.8851 92.4001C62.4824 92.5691 61.825 92.997 61.9493 93.9659C62.1668 95.6514 64.58 97.9156 69.2647 97.7912C67.9121 95.6784 65.3293 92.2927 63.4342 92.2927ZM68.9486 99.1528C64.1125 99.1534 61.2758 96.7243 60.9504 94.1966C60.7689 92.7869 61.3939 91.6031 62.5819 91.1049C65.811 89.7527 70.101 96.9702 70.5796 97.7988C70.751 98.0952 70.7106 98.5219 70.489 98.7508C70.3714 98.8728 70.2276 98.9169 70.0899 98.8834C70.0012 99.0289 69.8675 99.1258 69.7157 99.1328C69.4551 99.1463 69.199 99.1528 68.9486 99.1528Z" fill="#0C1A4B"/>
<path fill-rule="evenodd" clip-rule="evenodd" d="M71.1296 98.2765C71.1296 98.2765 75.6554 89.6969 78.6826 91.089C81.7106 92.4811 79.6308 98.9931 71.6188 98.5436" fill="white"/>
<path fill-rule="evenodd" clip-rule="evenodd" d="M72.1067 97.7912C76.7977 97.9062 79.2046 95.6508 79.4221 93.9653C79.5464 92.9964 78.889 92.5691 78.4864 92.4001C76.5735 91.6025 73.5957 95.4648 72.1067 97.7912ZM72.4228 99.1528C72.172 99.1528 71.9172 99.1463 71.6557 99.1328C71.5034 99.1252 71.3707 99.0289 71.2815 98.8828C71.1443 98.9168 70.9996 98.8728 70.8824 98.7507C70.6609 98.5213 70.6205 98.0952 70.7923 97.7982C71.2708 96.9707 75.564 89.7544 78.7896 91.1042C79.9775 91.6019 80.6025 92.7868 80.421 94.1954C80.096 96.7231 77.2585 99.1528 72.4228 99.1528Z" fill="#0C1A4B"/>
<path fill-rule="evenodd" clip-rule="evenodd" d="M70.9906 98.5659C70.7948 98.5659 70.6035 98.4485 70.4934 98.2372L66.3325 90.2239C66.1642 89.9 66.2499 89.4763 66.5247 89.2773C66.7995 89.0789 67.1582 89.1799 67.3269 89.505L71.4873 97.5177C71.6556 97.8417 71.5699 98.2654 71.2951 98.4644C71.2005 98.533 71.0944 98.5659 70.9906 98.5659Z" fill="#0C1A4B"/>
<path fill-rule="evenodd" clip-rule="evenodd" d="M70.8246 98.5659C70.7207 98.5659 70.6151 98.533 70.5196 98.4644C70.2453 98.2654 70.1596 97.8411 70.3278 97.5177L74.4887 89.5044C74.657 89.1805 75.0161 89.0789 75.2905 89.2767C75.5648 89.4762 75.6509 89.9 75.4827 90.2239L71.3222 98.2372C71.2126 98.4485 71.0208 98.5659 70.8246 98.5659Z" fill="#0C1A4B"/>
<path fill-rule="evenodd" clip-rule="evenodd" d="M56.9243 122.041H84.8915V96.8052H56.9243V122.041Z" fill="#95F793"/>
<path fill-rule="evenodd" clip-rule="evenodd" d="M56.4802 105.022H85.7792V96.8052H56.4802V105.022Z" fill="#95F793"/>
<path fill-rule="evenodd" clip-rule="evenodd" d="M68.4661 122.041H72.9053V96.8052H68.4661V122.041Z" fill="#0C0C0C"/>
<path fill-rule="evenodd" clip-rule="evenodd" d="M68.4661 122.041H72.9053V96.8052H68.4661V122.041Z" fill="white"/>
<path fill-rule="evenodd" clip-rule="evenodd" d="M84.8915 109.13L56.9243 105.506V103.848H84.8915V109.13Z" fill="#0C0C0C"/>
<path fill-rule="evenodd" clip-rule="evenodd" d="M28.5341 77.8501C28.6841 79.4405 28.8221 81.0339 28.9882 82.6215C29.1027 83.7189 29.1109 84.8217 29.2465 85.9262C29.5424 88.3295 29.5892 90.7815 29.8554 93.1936C30.127 95.6561 30.1989 98.1474 30.5526 100.599C30.7089 101.682 30.694 102.8 30.8152 103.905C31.0915 106.426 31.2029 108.976 31.4116 111.511C31.6519 114.427 31.9263 117.337 32.1819 120.251C32.2256 120.755 32.5461 121.142 32.5406 121.652C32.5332 122.274 28.3762 121.964 27.7767 121.964C25.9333 121.965 24.0898 121.965 22.2468 121.965C21.7485 121.965 21.2491 121.975 20.7508 121.965C20.6808 121.964 20.2599 122.066 20.2076 122.005C19.6429 121.335 21.1029 121.473 21.2565 121.473C22.8733 118.512 24.5029 115.527 26.2432 112.339C28.0338 115.387 29.4282 118.508 31.0387 121.366C31.3889 121.482 31.6839 121.579 32.0291 121.135C30.2923 117.79 28.5423 114.419 26.7024 110.878V78.113C26.4053 77.9129 26.2068 77.9141 25.9677 78.0878C25.7414 78.6254 25.8649 79.251 25.8645 79.8449C25.8551 89.6306 25.8434 99.4163 25.8758 109.201C25.8801 110.386 25.6515 111.345 25.1216 112.295C23.6576 114.918 22.2468 117.591 20.811 120.242C20.6894 120.467 20.5413 120.668 20.1872 121.221C21.4585 106.525 22.6962 92.2234 23.939 77.853C24.5635 77.8131 25.1067 77.7785 25.7492 77.7374C25.7492 76.6887 25.7253 75.7502 25.7539 74.8142C25.8516 71.5869 27.5148 68.7986 29.8886 67.8596C30.5928 67.5808 31.3166 67.4617 32.0544 67.4623C36.9098 67.4646 41.7649 67.4699 46.6201 67.4611C49.9855 67.4546 51.9943 70.1109 52.6224 72.9185C52.9713 74.4767 52.9909 76.1082 52.8368 77.7286C52.5234 77.7286 52.2105 77.7292 51.897 77.7292C51.8793 76.5637 51.9521 75.4034 51.8158 74.2308C51.4407 70.9971 49.5838 68.845 46.7724 68.7376C45.4326 68.6865 44.0911 68.7282 42.7504 68.7282C39.1604 68.7282 35.5709 68.7029 31.9814 68.737C29.1746 68.7634 27.2323 70.8222 26.7981 74.2414C26.6535 75.3799 26.6762 76.5543 26.8157 77.7497C27.4234 77.785 27.9787 77.8178 28.5341 77.8501Z" fill="#95F793"/>
<path fill-rule="evenodd" clip-rule="evenodd" d="M50.6287 89.9364C50.6451 89.9998 50.6509 90.062 50.65 90.1224C50.6509 90.062 50.6451 89.9992 50.6287 89.9364ZM58.1053 113.74C57.8984 111.214 57.6125 108.698 57.3994 106.171C57.185 103.639 57.0421 101.097 56.8241 98.5659C56.52 95.0288 56.1564 91.501 55.8546 87.9627C55.6335 85.3739 55.4812 82.7758 55.273 80.1853C55.202 79.3032 55.0542 78.4317 54.9277 77.4458H51.7922C51.4806 77.4458 51.1694 77.4463 50.8578 77.4463C43.5827 77.451 36.3081 77.454 29.033 77.4675C28.5639 77.4681 28.0867 77.3548 27.625 77.5696C27.7742 79.1935 27.9118 80.8197 28.0766 82.4413C28.1905 83.5617 28.1986 84.6873 28.3335 85.8153C28.6276 88.2685 28.6743 90.7727 28.939 93.2347C29.2091 95.7494 29.2806 98.293 29.6322 100.796C29.7881 101.902 29.7733 103.043 29.8934 104.171C30.1682 106.745 30.279 109.349 30.4868 111.937C30.7255 114.914 30.9983 117.885 31.2524 120.86C31.287 121.266 31.4227 121.607 31.5816 121.929C31.6699 121.971 31.7483 122.041 31.8261 122.041C40.7842 122.041 49.7417 122.036 58.6997 122.031C58.5039 119.267 58.3312 116.5 58.1053 113.74Z" fill="#2B612A"/>
<path fill-rule="evenodd" clip-rule="evenodd" d="M90.6624 119.694C90.6624 123.907 88.0787 127.323 84.8914 127.323C81.704 127.323 79.1204 123.907 79.1204 119.694C79.1204 115.48 81.704 112.064 84.8914 112.064C88.0787 112.064 90.6624 115.48 90.6624 119.694Z" fill="#FEE526"/>
<path fill-rule="evenodd" clip-rule="evenodd" d="M85.1079 126.736C83.8388 126.736 82.6317 126.122 81.6848 124.987C80.6745 123.776 80.0814 122.117 80.0148 120.317C79.9482 118.517 80.4157 116.79 81.3315 115.454C82.2473 114.119 83.5023 113.334 84.8642 113.246C86.224 113.157 87.5322 113.776 88.5426 114.987C89.5529 116.198 90.146 117.857 90.2126 119.657C90.2792 121.458 89.8113 123.185 88.8959 124.52C87.9797 125.856 86.7251 126.639 85.3632 126.728C85.278 126.734 85.1927 126.736 85.1079 126.736Z" fill="#FFB902"/>
<path fill-rule="evenodd" clip-rule="evenodd" d="M86.4604 121.466C86.4604 121.173 86.3162 120.997 86.0276 120.82V122.076C86.3548 121.971 86.4604 121.713 86.4604 121.466ZM85.3546 118.52V117.287C85.0763 117.37 84.932 117.593 84.932 117.874C84.932 118.097 85.0186 118.285 85.3546 118.52ZM86.0276 123.943V124.976H85.3546V123.954C84.2688 123.861 83.4617 123.18 83.1155 122.052L84.4419 121.114C84.6435 121.677 84.9218 122.005 85.3546 122.1V120.481C85.3169 120.457 85.2685 120.445 85.2299 120.421C84.394 120.011 83.3938 119.435 83.3938 117.863C83.3938 116.337 84.3363 115.55 85.3546 115.432V114.412H86.0276V115.456C86.8542 115.585 87.5467 116.125 87.9214 117.158L86.6238 118.086C86.4991 117.674 86.3068 117.44 86.0276 117.323V118.907C86.8644 119.342 87.9986 119.729 87.9986 121.443C87.9986 122.909 87.1716 123.778 86.0276 123.943Z" fill="white"/>
</g>
</svg>
